<svg width="126" height="38" viewBox="0 0 126 38" fill="none" xmlns="http://www.w3.org/2000/svg">
<path d="M120.359 0H4.83958C2.16675 0 0 2.16025 0 4.82505V33.1348C0 35.7996 2.16675 37.9599 4.83958 37.9599H120.359C123.032 37.9599 125.199 35.7996 125.199 33.1348V4.82505C125.199 2.16025 123.032 0 120.359 0Z" fill="#192149"/>
<path d="M8.01326 15.126C5.98215 18.6395 7.27326 23.9721 9.51921 27.2052C10.6401 28.822 11.7755 30.2727 13.3297 30.2727C13.3588 30.2727 13.3884 30.2722 13.4185 30.2706C14.1491 30.2416 14.6769 30.0176 15.187 29.8008C15.7599 29.5572 16.3531 29.3057 17.2825 29.3057C18.2119 29.3057 18.7308 29.5494 19.2762 29.7843C19.8143 30.0166 20.3681 30.2566 21.1869 30.2411C22.9378 30.2085 24.013 28.6429 24.9617 27.2616C25.9518 25.8196 26.4484 24.4196 26.6155 23.8841L26.6222 23.8629C26.6544 23.7677 26.6088 23.6642 26.5174 23.6223C26.5174 23.6223 26.506 23.6172 26.5034 23.6161C26.1952 23.4904 23.49 22.2937 23.4614 19.0332C23.435 16.3837 25.4905 14.9811 25.903 14.7266L25.9222 14.7142C25.9668 14.6857 25.998 14.6402 26.0089 14.5884C26.0192 14.5362 26.0089 14.4824 25.9783 14.4384C24.5595 12.3684 22.3846 12.0564 21.5092 12.0191C21.3826 12.0062 21.2513 12 21.1195 12C20.0909 12 19.106 12.387 18.3141 12.6985C17.7677 12.9132 17.296 13.0989 16.9706 13.0989C16.6047 13.0989 16.1299 12.9111 15.5809 12.6938C14.8455 12.403 14.0127 12.0735 13.131 12.0735C13.1097 12.0735 13.0895 12.0735 13.0692 12.0745C11.0189 12.1045 9.08122 13.2738 8.01326 15.126V15.126Z" fill="#F1FDE1"/>
<path d="M20.9536 7.00016C19.7124 7.05035 18.2225 7.81244 17.3325 8.85237C16.5754 9.7257 15.837 11.1832 16.0316 12.6515C16.044 12.7436 16.1193 12.8139 16.2116 12.8217C16.2957 12.8279 16.3808 12.8315 16.4659 12.8315C17.6797 12.8315 18.9895 12.1615 19.8841 11.0833C20.8255 9.94507 21.3013 8.484 21.1576 7.17504C21.1462 7.07208 21.0554 6.99602 20.9536 7.00016V7.00016Z" fill="#F1FDE1"/>
<path d="M36 7.00052H38.3544C38.9719 7.00052 39.5204 7.12779 39.9989 7.38182C40.4779 7.63586 40.8505 7.98767 41.1167 8.43675C41.3829 8.88584 41.5163 9.39597 41.5163 9.96612C41.5163 10.5363 41.3829 11.0464 41.1167 11.4955C40.8505 11.9446 40.4779 12.2964 39.9989 12.5504C39.5199 12.8044 38.9719 12.9317 38.3544 12.9317H36V7V7.00052ZM38.3207 12.5427C38.8702 12.5427 39.3549 12.434 39.7742 12.2162C40.1935 11.9989 40.5163 11.6952 40.7431 11.3051C40.9698 10.9155 41.083 10.469 41.083 9.96612C41.083 9.46323 40.9693 9.01725 40.7431 8.62715C40.5163 8.23757 40.1935 7.93387 39.7742 7.71605C39.3549 7.49876 38.8702 7.38959 38.3207 7.38959H36.4338V12.5421H38.3207V12.5427Z" fill="#F1FDE1"/>
<path d="M43.0835 12.2037C42.7462 12.0117 42.4816 11.7448 42.289 11.4028C42.0965 11.0608 42 10.6754 42 10.2459C42 9.81651 42.0965 9.43107 42.289 9.08908C42.4816 8.74709 42.7467 8.48065 43.0835 8.28818C43.4208 8.09624 43.7986 8 44.2184 8C44.6383 8 45.016 8.09624 45.3534 8.28818C45.6907 8.48013 45.9553 8.74709 46.1478 9.08908C46.3404 9.43107 46.4369 9.81651 46.4369 10.2459C46.4369 10.6754 46.3404 11.0608 46.1478 11.4028C45.9553 11.7448 45.6901 12.0117 45.3534 12.2037C45.016 12.3956 44.6377 12.4919 44.2184 12.4919C43.7991 12.4919 43.4208 12.3956 43.0835 12.2037ZM45.1318 11.8731C45.4011 11.7148 45.6133 11.4949 45.769 11.2119C45.9247 10.9294 46.0025 10.6076 46.0025 10.2459C46.0025 9.88429 45.9247 9.56248 45.769 9.27999C45.6133 8.9975 45.4006 8.7771 45.1318 8.61879C44.8624 8.46047 44.5578 8.38131 44.2179 8.38131C43.878 8.38131 43.5734 8.46047 43.3041 8.61879C43.0348 8.7771 42.8225 8.9975 42.6668 9.27999C42.5111 9.56248 42.4333 9.8848 42.4333 10.2459C42.4333 10.6071 42.5111 10.9294 42.6668 11.2119C42.8225 11.4944 43.0353 11.7148 43.3041 11.8731C43.5734 12.0314 43.878 12.1106 44.2179 12.1106C44.5578 12.1106 44.8624 12.0314 45.1318 11.8731Z" fill="#F1FDE1"/>
<path d="M54.1566 8L52.4737 12.4236H52.0742L50.5781 8.58464L49.0737 12.4236H48.6829L47 8H47.4079L48.8869 11.9491L50.3996 8H50.7649L52.2693 11.9403L53.7654 8H54.1561H54.1566Z" fill="#F1FDE1"/>
<path d="M58.4846 8.48323C58.8074 8.80504 58.9693 9.26861 58.9693 9.87291V12.4577H58.5443V9.90705C58.5443 9.40985 58.4182 9.03165 58.166 8.77141C57.9138 8.51169 57.5609 8.38182 57.1079 8.38182C56.5864 8.38182 56.1759 8.53704 55.8754 8.84798C55.575 9.15892 55.425 9.57696 55.425 10.1021V12.4577H55V8.03415H55.4079V8.99181C55.561 8.68139 55.7888 8.43822 56.0924 8.26283C56.3954 8.08796 56.754 8 57.1676 8C57.7228 8 58.1619 8.16091 58.4852 8.48323H58.4846Z" fill="#F1FDE1"/>
<path d="M61 6H61.425V12.2877H61V6Z" fill="#F1FDE1"/>
<path d="M63.0835 12.2037C62.7462 12.0117 62.4816 11.7448 62.289 11.4028C62.0965 11.0608 62 10.6754 62 10.2459C62 9.81651 62.0965 9.43107 62.289 9.08908C62.4816 8.74709 62.7468 8.48065 63.0835 8.28818C63.4209 8.09624 63.7986 8 64.2185 8C64.6383 8 65.0161 8.09624 65.3534 8.28818C65.6907 8.48013 65.9554 8.74709 66.1484 9.08908C66.3409 9.43107 66.4375 9.81651 66.4375 10.2459C66.4375 10.6754 66.3409 11.0608 66.1484 11.4028C65.9559 11.7448 65.6907 12.0117 65.3534 12.2037C65.0161 12.3956 64.6378 12.4919 64.2185 12.4919C63.7992 12.4919 63.4209 12.3956 63.0835 12.2037ZM65.1318 11.8731C65.4006 11.7148 65.6134 11.4949 65.7691 11.2119C65.9247 10.9294 66.0026 10.6076 66.0026 10.2459C66.0026 9.88429 65.9247 9.56248 65.7691 9.27999C65.6134 8.9975 65.4006 8.7771 65.1318 8.61879C64.8625 8.46047 64.5579 8.38131 64.2179 8.38131C63.878 8.38131 63.5734 8.46047 63.3041 8.61879C63.0348 8.7771 62.8225 8.9975 62.6668 9.27999C62.5112 9.56248 62.4333 9.8848 62.4333 10.2459C62.4333 10.6071 62.5112 10.9294 62.6668 11.2119C62.8225 11.4944 63.0353 11.7148 63.3041 11.8731C63.5734 12.0314 63.878 12.1106 64.2179 12.1106C64.5579 12.1106 64.8625 12.0314 65.1318 11.8731Z" fill="#F1FDE1"/>
<path d="M71.1619 8.41959C71.4567 8.69949 71.604 9.11029 71.604 9.6525V12.4572H71.1962V11.6692C71.0545 11.929 70.8474 12.1312 70.5755 12.2751C70.3036 12.4189 69.9777 12.4913 69.5978 12.4913C69.1048 12.4913 68.7151 12.3755 68.4292 12.1437C68.1427 11.9119 68 11.6071 68 11.2284C68 10.8497 68.1318 10.5631 68.3954 10.3344C68.6591 10.1057 69.0799 9.99138 69.6575 9.99138H71.179V9.63543C71.179 9.22308 71.0669 8.90955 70.8433 8.69484C70.6196 8.48013 70.2922 8.37303 69.8614 8.37303C69.5667 8.37303 69.2849 8.42373 69.0156 8.52566C68.7462 8.62758 68.5184 8.76313 68.3311 8.93231L68.1188 8.62706C68.3399 8.42942 68.6061 8.27525 68.918 8.16505C69.2294 8.05485 69.5553 8 69.8957 8C70.4453 8 70.8677 8.13969 71.1624 8.41959H71.1619ZM70.5968 11.8896C70.8547 11.7199 71.0488 11.4742 71.179 11.1524V10.322H69.6663C69.2299 10.322 68.9139 10.4011 68.7187 10.5595C68.5231 10.7178 68.4255 10.9351 68.4255 11.2119C68.4255 11.4887 68.533 11.7277 68.7483 11.8938C68.9637 12.0604 69.2667 12.1437 69.658 12.1437C70.0265 12.1437 70.3394 12.0588 70.5973 11.8896H70.5968Z" fill="#F1FDE1"/>
<path d="M77.4286 6V12.2877H77.0119V11.2452C76.836 11.5897 76.5895 11.8551 76.2724 12.0419C75.9548 12.2282 75.5952 12.3218 75.193 12.3218C74.7908 12.3218 74.4053 12.2256 74.0711 12.0336C73.7369 11.8417 73.4748 11.5763 73.2849 11.2369C73.095 10.898 73 10.511 73 10.0759C73 9.64078 73.095 9.25274 73.2849 8.91076C73.4748 8.56877 73.7369 8.30336 74.0711 8.114C74.4053 7.92464 74.7794 7.82996 75.193 7.82996C75.6066 7.82996 75.9455 7.92309 76.2599 8.10986C76.5744 8.29612 76.8225 8.55635 77.0036 8.88954V6H77.4286ZM76.1323 11.703C76.4011 11.5447 76.6139 11.3248 76.7695 11.0418C76.9252 10.7593 77.0031 10.4375 77.0031 10.0759C77.0031 9.71424 76.9252 9.39243 76.7695 9.10995C76.6139 8.82746 76.4011 8.60706 76.1323 8.44874C75.863 8.29043 75.5583 8.21126 75.2184 8.21126C74.8785 8.21126 74.5739 8.29043 74.3046 8.44874C74.0353 8.60706 73.823 8.82746 73.6673 9.10995C73.5117 9.39243 73.4338 9.71476 73.4338 10.0759C73.4338 10.437 73.5117 10.7593 73.6673 11.0418C73.823 11.3243 74.0358 11.5447 74.3046 11.703C74.5739 11.8614 74.8785 11.9405 75.2184 11.9405C75.5583 11.9405 75.863 11.8614 76.1323 11.703Z" fill="#F1FDE1"/>
<path d="M82.0836 12.2037C81.7462 12.0117 81.4816 11.7448 81.289 11.4028C81.0965 11.0608 81 10.6754 81 10.2459C81 9.81651 81.0965 9.43107 81.289 9.08908C81.4816 8.74709 81.7468 8.48065 82.0836 8.28818C82.4209 8.09624 82.7987 8 83.2185 8C83.6383 8 84.0161 8.09624 84.3534 8.28818C84.6907 8.48013 84.9554 8.74709 85.1484 9.08908C85.341 9.43107 85.4375 9.81651 85.4375 10.2459C85.4375 10.6754 85.341 11.0608 85.1484 11.4028C84.9559 11.7448 84.6907 12.0117 84.3534 12.2037C84.0161 12.3956 83.6378 12.4919 83.2185 12.4919C82.7992 12.4919 82.4209 12.3956 82.0836 12.2037ZM84.1318 11.8731C84.4006 11.7148 84.6134 11.4949 84.7691 11.2119C84.9248 10.9294 85.0026 10.6076 85.0026 10.2459C85.0026 9.88429 84.9248 9.56248 84.7691 9.27999C84.6134 8.9975 84.4006 8.7771 84.1318 8.61879C83.8625 8.46047 83.5579 8.38131 83.218 8.38131C82.8781 8.38131 82.5734 8.46047 82.3041 8.61879C82.0348 8.7771 81.8225 8.9975 81.6668 9.27999C81.5112 9.56248 81.4333 9.8848 81.4333 10.2459C81.4333 10.6071 81.5112 10.9294 81.6668 11.2119C81.8225 11.4944 82.0353 11.7148 82.3041 11.8731C82.5734 12.0314 82.8781 12.1106 83.218 12.1106C83.5579 12.1106 83.8625 12.0314 84.1318 11.8731Z" fill="#F1FDE1"/>
<path d="M89.4846 8.48323C89.8074 8.80504 89.9693 9.26861 89.9693 9.87291V12.4577H89.5443V9.90705C89.5443 9.40985 89.4182 9.03165 89.166 8.77141C88.9138 8.51169 88.5609 8.38182 88.1079 8.38182C87.5864 8.38182 87.1759 8.53704 86.8754 8.84798C86.575 9.15892 86.425 9.57696 86.425 10.1021V12.4577H86V8.03415H86.4079V8.99181C86.561 8.68139 86.7888 8.43822 87.0924 8.26283C87.3954 8.08796 87.754 8 88.1676 8C88.7228 8 89.1619 8.16091 89.4852 8.48323H89.4846Z" fill="#F1FDE1"/>
<path d="M95.9325 12.1096C95.8246 12.2115 95.6902 12.2891 95.5288 12.3424C95.3674 12.3962 95.1987 12.4231 95.0228 12.4231C94.6372 12.4231 94.3399 12.3171 94.1302 12.1055C93.9206 11.8939 93.8158 11.5984 93.8158 11.2197V8.33018H93V7.96594H93.8158V7H94.2408V7.96594H95.6518V8.33018H94.2408V11.1778C94.2408 11.466 94.3103 11.6848 94.4489 11.8344C94.5874 11.9839 94.7929 12.0589 95.0654 12.0589C95.3378 12.0589 95.5724 11.9772 95.754 11.8132L95.9325 12.1096V12.1096Z" fill="#F1FDE1"/>
<path d="M101.485 8.31319C101.807 8.635 101.969 9.09857 101.969 9.70286V12.2877H101.544V9.73701C101.544 9.23981 101.418 8.86161 101.166 8.60137C100.914 8.34165 100.561 8.21178 100.108 8.21178C99.5864 8.21178 99.1759 8.367 98.8754 8.67794C98.575 8.98888 98.425 9.40692 98.425 9.93206V12.2877H98V6H98.425V8.78814C98.5781 8.48289 98.8043 8.24749 99.1048 8.08037C99.4053 7.91378 99.7592 7.83048 100.167 7.83048C100.722 7.83048 101.161 7.99138 101.485 8.31371V8.31319Z" fill="#F1FDE1"/>
<path d="M107.232 10.3484H103.416C103.427 10.6929 103.515 10.9997 103.679 11.2677C103.844 11.5363 104.066 11.7437 104.347 11.8907C104.627 12.0376 104.943 12.1111 105.294 12.1111C105.583 12.1111 105.851 12.0588 106.098 11.9543C106.344 11.8498 106.55 11.6956 106.714 11.4923L106.961 11.7717C106.768 12.0035 106.526 12.1814 106.234 12.3056C105.942 12.4298 105.626 12.4919 105.286 12.4919C104.844 12.4919 104.45 12.3956 104.105 12.2037C103.759 12.0117 103.488 11.7463 103.293 11.4069C103.098 11.068 103 10.681 103 10.2459C103 9.81082 103.092 9.43106 103.276 9.08908C103.46 8.74709 103.714 8.48065 104.037 8.28818C104.36 8.09624 104.722 8 105.125 8C105.527 8 105.888 8.09468 106.208 8.28404C106.528 8.4734 106.78 8.73726 106.965 9.07614C107.149 9.41502 107.241 9.79944 107.241 10.2289L107.232 10.3473L107.232 10.3484ZM104.282 8.58153C104.033 8.72019 103.833 8.91472 103.683 9.16617C103.533 9.41761 103.446 9.70165 103.423 10.0178H106.824C106.806 9.70165 106.721 9.41916 106.569 9.1703C106.416 8.92196 106.214 8.72692 105.965 8.58567C105.716 8.44443 105.435 8.37407 105.124 8.37407C104.812 8.37407 104.531 8.44339 104.282 8.58153Z" fill="#F1FDE1"/>
<path d="M42.0326 25.7912H36.9486L35.9465 28.137H34L38.5754 18H40.4348L45.0248 28.137H43.0492L42.0326 25.7912ZM41.4078 24.3141L39.4903 19.8827L37.5874 24.3141H41.4078Z" fill="#F1FDE1"/>
<path d="M52.3258 20.492C52.9215 20.8206 53.3886 21.2836 53.7275 21.8822C54.0663 22.4808 54.236 23.171 54.236 23.9533C54.236 24.7355 54.0663 25.4283 53.7275 26.0316C53.3886 26.6348 52.921 27.101 52.3258 27.429C51.7301 27.7575 51.0549 27.9215 50.2994 27.9215C49.2537 27.9215 48.4255 27.5739 47.8158 26.879V30.63H46V20.0874H47.7286V21.101C48.0285 20.7342 48.399 20.4589 48.8396 20.2752C49.2802 20.0921 49.7669 20 50.2994 20C51.0549 20 51.7301 20.1645 52.3258 20.4925V20.492ZM51.7446 25.7056C52.1753 25.2617 52.3912 24.6776 52.3912 23.9533C52.3912 23.2289 52.1758 22.6453 51.7446 22.2009C51.3134 21.757 50.7643 21.5345 50.0959 21.5345C49.66 21.5345 49.2682 21.6339 48.9195 21.8315C48.5708 22.0297 48.2947 22.3121 48.0918 22.679C47.8884 23.0458 47.7867 23.4706 47.7867 23.9533C47.7867 24.436 47.8884 24.8607 48.0918 25.2276C48.2952 25.5944 48.5713 25.8769 48.9195 26.075C49.2682 26.2732 49.66 26.372 50.0959 26.372C50.7643 26.372 51.3134 26.15 51.7446 25.7056V25.7056Z" fill="#F1FDE1"/>
<path d="M62.3258 20.492C62.9215 20.8206 63.3886 21.2836 63.7274 21.8822C64.0663 22.4808 64.236 23.171 64.236 23.9533C64.236 24.7355 64.0663 25.4283 63.7274 26.0316C63.3886 26.6348 62.921 27.101 62.3258 27.429C61.7301 27.7575 61.0549 27.9215 60.2994 27.9215C59.2537 27.9215 58.4255 27.5739 57.8158 26.879V30.63H56V20.0874H57.7286V21.101C58.0285 20.7342 58.399 20.4589 58.8396 20.2752C59.2802 20.0921 59.7669 20 60.2994 20C61.0549 20 61.7301 20.1645 62.3258 20.4925V20.492ZM61.7446 25.7056C62.1753 25.2617 62.3912 24.6776 62.3912 23.9533C62.3912 23.2289 62.1758 22.6453 61.7446 22.2009C61.3134 21.757 60.7643 21.5345 60.0959 21.5345C59.66 21.5345 59.2682 21.6339 58.9195 21.8315C58.5708 22.0297 58.2947 22.3121 58.0918 22.679C57.8884 23.0458 57.7867 23.4706 57.7867 23.9533C57.7867 24.436 57.8884 24.8607 58.0918 25.2276C58.2952 25.5944 58.5713 25.8769 58.9195 26.075C59.2682 26.2732 59.66 26.372 60.0959 26.372C60.7643 26.372 61.3134 26.15 61.7446 25.7056V25.7056Z" fill="#F1FDE1"/>
<path d="M70.7358 28.094C70.0047 27.8721 69.426 27.5777 69 27.2108L69.6539 25.7482C70.07 26.0768 70.5812 26.3442 71.1863 26.5517C71.7913 26.7597 72.399 26.8632 73.0093 26.8632C73.7643 26.8632 74.3284 26.7426 74.7015 26.501C75.0741 26.2599 75.2609 25.9412 75.2609 25.5454C75.2609 25.2557 75.1566 25.0167 74.9485 24.8283C74.7405 24.64 74.4763 24.4931 74.1572 24.3865C73.8375 24.2804 73.4021 24.1599 72.85 24.0243C72.0752 23.8412 71.4483 23.6575 70.9688 23.4738C70.4893 23.2907 70.0778 23.003 69.7343 22.6124C69.3902 22.2213 69.2185 21.693 69.2185 21.0266C69.2185 20.4668 69.371 19.9572 69.6762 19.4988C69.9813 19.0404 70.4411 18.6757 71.056 18.4056C71.671 18.1356 72.4234 18 73.3149 18C73.9345 18 74.5448 18.0776 75.1452 18.2318C75.7456 18.3865 76.2635 18.6084 76.6994 18.8982L76.1037 20.3608C75.6579 20.1 75.1935 19.9024 74.7093 19.7668C74.2251 19.6318 73.7555 19.564 73.3004 19.564C72.5547 19.564 72.0005 19.6898 71.6372 19.9407C71.274 20.1916 71.0923 20.5248 71.0923 20.9397C71.0923 21.2295 71.1961 21.4659 71.4047 21.6491C71.6128 21.8327 71.877 21.9776 72.1961 22.0837C72.5158 22.1902 72.9512 22.3108 73.5033 22.4458C74.2589 22.6197 74.8785 22.8007 75.3627 22.9891C75.8468 23.1774 76.2609 23.4645 76.6045 23.8505C76.948 24.237 77.1203 24.758 77.1203 25.4145C77.1203 25.9743 76.9677 26.4813 76.6626 26.9351C76.3575 27.3888 75.8951 27.751 75.2755 28.0211C74.6559 28.2911 73.9003 28.4267 73.0098 28.4267C72.2252 28.4267 71.4675 28.3154 70.7364 28.0935L70.7358 28.094Z" fill="#F1FDE1"/>
<path d="M83.6938 28.0225C83.4805 28.1964 83.2215 28.3267 82.9169 28.4137C82.6118 28.5006 82.29 28.544 81.9512 28.544C81.0991 28.544 80.4406 28.3221 79.9756 27.8777C79.5106 27.4337 79.2781 26.787 79.2781 25.937V22.215H78V20.7668H79.2781V19H81.0939V20.7668H83.1712V22.215H81.0939V25.8935C81.0939 26.2702 81.1857 26.5573 81.37 26.7549C81.5537 26.9531 81.8204 27.0519 82.1686 27.0519C82.5754 27.0519 82.9143 26.9459 83.1852 26.7332L83.6938 28.022V28.0225Z" fill="#F1FDE1"/>
<path d="M86.0046 27.415C85.3752 27.0772 84.8837 26.6064 84.5303 26.0031C84.177 25.3999 84 24.7169 84 23.9538C84 23.1907 84.1764 22.5108 84.5303 21.9117C84.8837 21.3131 85.3752 20.8449 86.0046 20.507C86.6341 20.1692 87.3409 20 88.1255 20C88.9102 20 89.6309 20.1692 90.2609 20.507C90.8904 20.8449 91.3818 21.3131 91.7352 21.9117C92.0886 22.5103 92.2656 23.1912 92.2656 23.9538C92.2656 24.7164 92.0886 25.3999 91.7352 26.0031C91.3818 26.6064 90.8904 27.0772 90.2609 27.415C89.6315 27.7529 88.9195 27.9221 88.1255 27.9221C87.3316 27.9221 86.6341 27.7534 86.0046 27.415ZM89.7814 25.7061C90.2173 25.2622 90.4353 24.6781 90.4353 23.9538C90.4353 23.2295 90.2173 22.6459 89.7814 22.2014C89.3455 21.7575 88.7939 21.535 88.1255 21.535C87.4571 21.535 86.9076 21.757 86.4769 22.2014C86.0456 22.6453 85.8303 23.2295 85.8303 23.9538C85.8303 24.6781 86.0456 25.2622 86.4769 25.7061C86.9076 26.15 87.4571 26.3725 88.1255 26.3725C88.7939 26.3725 89.3455 26.1506 89.7814 25.7061Z" fill="#F1FDE1"/>
<path d="M98.4888 20V21.7234C98.3336 21.6944 98.1935 21.6799 98.0674 21.6799C97.3606 21.6799 96.8085 21.8853 96.4115 22.2956C96.0145 22.7059 95.8158 23.2972 95.8158 24.0697V27.8207H94V20.0874H95.7286V21.2169C96.2517 20.4061 97.1712 20.0005 98.4883 20.0005L98.4888 20Z" fill="#F1FDE1"/>
<path d="M107.902 24.5332H101.816C101.923 25.1029 102.201 25.554 102.651 25.8872C103.102 26.2204 103.661 26.387 104.329 26.387C105.181 26.387 105.883 26.1071 106.435 25.5473L107.408 26.6622C107.06 27.0777 106.619 27.3912 106.087 27.6034C105.554 27.816 104.954 27.9221 104.285 27.9221C103.433 27.9221 102.682 27.7534 102.034 27.415C101.385 27.0772 100.884 26.6064 100.53 26.0031C100.177 25.3999 100 24.7169 100 23.9538C100 23.1907 100.172 22.5227 100.516 21.9189C100.859 21.3157 101.336 20.8449 101.947 20.507C102.557 20.1692 103.244 20 104.009 20C104.775 20 105.44 20.1666 106.036 20.4998C106.631 20.833 107.096 21.3012 107.43 21.9045C107.764 22.5077 107.931 23.2057 107.931 23.9972C107.931 24.123 107.922 24.3015 107.902 24.5332V24.5332ZM102.535 21.9629C102.133 22.3059 101.889 22.7618 101.802 23.3314H106.203C106.125 22.7716 105.888 22.3178 105.491 21.9702C105.094 21.6225 104.6 21.4487 104.009 21.4487C103.419 21.4487 102.937 21.6199 102.535 21.9629V21.9629Z" fill="#F1FDE1"/>
</svg>
