<svg width="126" height="38" viewBox="0 0 126 38" fill="none" xmlns="http://www.w3.org/2000/svg">
<path d="M4.83958 0H120.36C123.03 0 125.199 2.16211 125.199 4.82505V33.1343C125.199 35.7972 123.03 37.9594 120.36 37.9594H4.83958C2.16863 37.9594 0 35.7972 0 33.1343V4.82505C0 2.16211 2.16863 0 4.83958 0Z" fill="#192149"/>
<path d="M38.6751 11.2621H35.2242L34.4676 12.9317H34L36.7368 7H37.1702L39.907 12.9317H39.4394L38.6745 11.2621H38.6751ZM38.5137 10.8979L36.9496 7.47443L35.3944 10.8979H38.5137V10.8979Z" fill="#F1FDE1"/>
<path d="M44.4369 8L42.4307 12.4236H41.9974L40 8H40.4504L42.2184 11.9574L44.0036 8H44.4369Z" fill="#F1FDE1"/>
<path d="M48.1619 8.41907C48.4566 8.69898 48.604 9.10977 48.604 9.65198V12.4572H48.1961V11.6692C48.0544 11.929 47.8474 12.1312 47.5755 12.2751C47.3035 12.4189 46.9777 12.4913 46.5978 12.4913C46.1048 12.4913 45.7151 12.3754 45.4292 12.1437C45.1427 11.9119 45 11.6071 45 11.2284C45 10.8497 45.1318 10.5631 45.3954 10.3344C45.659 10.1057 46.0799 9.99138 46.6575 9.99138H48.179V9.63543C48.179 9.22308 48.0669 8.90955 47.8432 8.69484C47.6196 8.48013 47.2921 8.37303 46.8614 8.37303C46.5667 8.37303 46.2849 8.42373 46.0156 8.52565C45.7462 8.62758 45.5184 8.76313 45.3311 8.93231L45.1188 8.62706C45.3399 8.42942 45.6061 8.27524 45.918 8.16504C46.2294 8.05484 46.5552 8 46.8957 8C47.4452 8 47.8676 8.13969 48.1624 8.41959L48.1619 8.41907ZM47.5967 11.8891C47.8547 11.7194 48.0487 11.4737 48.179 11.1519V10.3215H46.6658C46.2294 10.3215 45.9133 10.4006 45.7182 10.5589C45.5226 10.7173 45.425 10.9346 45.425 11.2114C45.425 11.4881 45.5324 11.7272 45.7478 11.8938C45.9631 12.0604 46.2662 12.1437 46.6575 12.1437C47.0259 12.1437 47.3388 12.0588 47.5967 11.8896V11.8891Z" fill="#F1FDE1"/>
<path d="M50.1022 6.58929C50.0342 6.52462 50 6.44391 50 6.34768C50 6.25144 50.0342 6.1697 50.1022 6.10192C50.1702 6.03415 50.2522 6 50.3487 6C50.4452 6 50.5272 6.03259 50.5952 6.09727C50.6632 6.16246 50.6974 6.24265 50.6974 6.33888C50.6974 6.43511 50.6632 6.51686 50.5952 6.58463C50.5272 6.65241 50.4452 6.68656 50.3487 6.68656C50.2522 6.68656 50.1702 6.65396 50.1022 6.58929ZM50.136 7.76322H50.5609V12.1868H50.136V7.76322Z" fill="#F1FDE1"/>
<path d="M52 6H52.425V12.2877H52V6Z" fill="#F1FDE1"/>
<path d="M57.1619 8.41907C57.4566 8.69898 57.604 9.10977 57.604 9.65198V12.4572H57.1961V11.6692C57.0544 11.929 56.8474 12.1312 56.5755 12.2751C56.3035 12.4189 55.9777 12.4913 55.5978 12.4913C55.1048 12.4913 54.7151 12.3754 54.4292 12.1437C54.1427 11.9119 54 11.6071 54 11.2284C54 10.8497 54.1318 10.5631 54.3954 10.3344C54.659 10.1057 55.0799 9.99138 55.6575 9.99138H57.179V9.63543C57.179 9.22308 57.0669 8.90955 56.8432 8.69484C56.6191 8.48013 56.2921 8.37303 55.8614 8.37303C55.5667 8.37303 55.2849 8.42373 55.0156 8.52565C54.7462 8.62758 54.5184 8.76313 54.3316 8.93231L54.1194 8.62706C54.3404 8.42942 54.6066 8.27524 54.9185 8.16504C55.2299 8.05484 55.5558 8 55.8962 8C56.4457 8 56.8682 8.13969 57.1629 8.41959L57.1619 8.41907ZM56.5967 11.8891C56.8547 11.7194 57.0487 11.4737 57.179 11.1519V10.3215H55.6658C55.2294 10.3215 54.9133 10.4006 54.7182 10.5589C54.5226 10.7173 54.425 10.9346 54.425 11.2114C54.425 11.4881 54.5324 11.7272 54.7478 11.8938C54.9631 12.0604 55.2662 12.1437 55.6575 12.1437C56.0259 12.1437 56.3388 12.0588 56.5967 11.8896V11.8891Z" fill="#F1FDE1"/>
<path d="M63.3487 8.11452C63.6829 8.30388 63.9449 8.56929 64.1349 8.91127C64.3248 9.25326 64.4198 9.64129 64.4198 10.0764C64.4198 10.5115 64.3248 10.8985 64.1349 11.2374C63.9449 11.5763 63.6829 11.8422 63.3487 12.0342C63.0145 12.2261 62.6403 12.3223 62.2267 12.3223C61.8132 12.3223 61.4717 12.2277 61.1515 12.0383C60.8313 11.8489 60.5833 11.5851 60.4079 11.2462V12.2887H60V6H60.425V8.87299C60.6004 8.54549 60.8469 8.28991 61.1645 8.10624C61.4816 7.92257 61.836 7.83099 62.2267 7.83099C62.6403 7.83099 63.0145 7.92567 63.3487 8.11503V8.11452ZM63.1193 11.7036C63.3912 11.5452 63.605 11.3254 63.7612 11.0423C63.9169 10.7599 63.9948 10.4381 63.9948 10.0764C63.9948 9.71476 63.9169 9.39295 63.7612 9.11046C63.6056 8.82798 63.3918 8.60757 63.1193 8.44926C62.8474 8.29094 62.5412 8.21178 62.2013 8.21178C61.8614 8.21178 61.5568 8.29094 61.2875 8.44926C61.0181 8.60757 60.8059 8.82798 60.6502 9.11046C60.4945 9.39295 60.4167 9.71528 60.4167 10.0764C60.4167 10.4375 60.4945 10.7599 60.6502 11.0423C60.8059 11.3248 61.0187 11.5452 61.2875 11.7036C61.5568 11.8619 61.8614 11.941 62.2013 11.941C62.5412 11.941 62.8474 11.8619 63.1193 11.7036Z" fill="#F1FDE1"/>
<path d="M65 6H65.425V12.2877H65V6Z" fill="#F1FDE1"/>
<path d="M71.232 10.3479H67.4157C67.4271 10.6924 67.5148 10.9992 67.6793 11.2672C67.8438 11.5358 68.0659 11.7432 68.3466 11.8902C68.6274 12.0371 68.9429 12.1106 69.2942 12.1106C69.5833 12.1106 69.8511 12.0583 70.0976 11.9538C70.3441 11.8493 70.5496 11.6951 70.7141 11.4918L70.9606 11.7717C70.768 12.0035 70.5257 12.1814 70.234 12.3056C69.9424 12.4298 69.6264 12.4919 69.2864 12.4919C68.8443 12.4919 68.4504 12.3956 68.1048 12.2037C67.7592 12.0117 67.4883 11.7458 67.2932 11.4069C67.0976 11.068 67 10.681 67 10.2459C67 9.81082 67.0918 9.43106 67.2761 9.08908C67.4603 8.74709 67.7141 8.48013 68.0368 8.28818C68.3596 8.09623 68.7224 8 69.1245 8C69.5267 8 69.8879 8.09468 70.2081 8.28404C70.5283 8.4734 70.7805 8.73726 70.9647 9.07614C71.1489 9.41503 71.2408 9.79944 71.2408 10.2289L71.2325 10.3473L71.232 10.3479ZM68.2823 8.58101C68.0327 8.71967 67.8329 8.9142 67.6829 9.16565C67.5329 9.41709 67.4463 9.70113 67.4235 10.0173H70.8236C70.8064 9.70113 70.7213 9.41865 70.5688 9.16979C70.4157 8.92145 70.2143 8.7264 69.9652 8.58515C69.7156 8.44391 69.4354 8.37355 69.1235 8.37355C68.8116 8.37355 68.5314 8.44287 68.2823 8.58101V8.58101Z" fill="#F1FDE1"/>
<path d="M75.0835 12.2037C74.7462 12.0117 74.4816 11.7448 74.289 11.4028C74.0965 11.0608 74 10.6754 74 10.2459C74 9.81651 74.0965 9.43106 74.289 9.08908C74.4816 8.74709 74.7467 8.48013 75.0835 8.28818C75.4208 8.09623 75.7986 8 76.2184 8C76.6383 8 77.016 8.09623 77.3534 8.28818C77.6907 8.48013 77.9553 8.74709 78.1484 9.08908C78.3409 9.43106 78.4374 9.81651 78.4374 10.2459C78.4374 10.6754 78.3409 11.0608 78.1484 11.4028C77.9558 11.7448 77.6907 12.0117 77.3534 12.2037C77.016 12.3956 76.6377 12.4919 76.2184 12.4919C75.7991 12.4919 75.4208 12.3956 75.0835 12.2037ZM77.1318 11.8731C77.4006 11.7148 77.6133 11.4949 77.769 11.2119C77.9247 10.9294 78.0025 10.6076 78.0025 10.2459C78.0025 9.88429 77.9247 9.56248 77.769 9.27999C77.6133 8.9975 77.4006 8.7771 77.1318 8.61878C76.8624 8.46047 76.5578 8.38131 76.2179 8.38131C75.878 8.38131 75.5734 8.46047 75.3041 8.61878C75.0348 8.7771 74.8225 8.9975 74.6668 9.27999C74.5111 9.56248 74.4333 9.8848 74.4333 10.2459C74.4333 10.6071 74.5111 10.9294 74.6668 11.2119C74.8225 11.4944 75.0353 11.7148 75.3041 11.8731C75.5734 12.0314 75.878 12.1106 76.2179 12.1106C76.5578 12.1106 76.8624 12.0314 77.1318 11.8731Z" fill="#F1FDE1"/>
<path d="M83.4846 8.48323C83.8074 8.80504 83.9693 9.2686 83.9693 9.8729V12.4577H83.5443V9.90705C83.5443 9.40985 83.4182 9.03165 83.166 8.77141C82.9138 8.51168 82.5609 8.38182 82.1079 8.38182C81.5864 8.38182 81.1759 8.53704 80.8754 8.84798C80.575 9.15892 80.425 9.57696 80.425 10.1021V12.4577H80V8.03415H80.4079V8.99181C80.561 8.68138 80.7888 8.43822 81.0924 8.26283C81.3954 8.08795 81.754 8 82.1676 8C82.7228 8 83.1619 8.1609 83.4852 8.48323H83.4846Z" fill="#F1FDE1"/>
<path d="M89.9325 12.1096C89.8246 12.2115 89.6902 12.2891 89.5288 12.3424C89.3674 12.3962 89.1987 12.4231 89.0228 12.4231C88.6372 12.4231 88.3399 12.3171 88.1302 12.1055C87.9206 11.8933 87.8158 11.5984 87.8158 11.2197V8.33018H87V7.96594H87.8158V7H88.2408V7.96594H89.6518V8.33018H88.2408V11.1773C88.2408 11.4655 88.3103 11.6843 88.4489 11.8338C88.5874 11.9834 88.7929 12.0584 89.0654 12.0584C89.3378 12.0584 89.5724 11.9766 89.754 11.8126L89.9325 12.1091V12.1096Z" fill="#F1FDE1"/>
<path d="M94.4846 8.3137C94.8074 8.63551 94.9693 9.09908 94.9693 9.70337V12.2882H94.5443V9.73752C94.5443 9.24032 94.4182 8.86212 94.166 8.60188C93.9138 8.34216 93.5609 8.2123 93.1079 8.2123C92.5864 8.2123 92.1759 8.36751 91.8754 8.67845C91.575 8.9894 91.425 9.40743 91.425 9.93257V12.2882H91V6H91.425V8.78814C91.5781 8.48289 91.8043 8.24748 92.1048 8.08037C92.4053 7.91377 92.7592 7.83047 93.1671 7.83047C93.7223 7.83047 94.1613 7.99138 94.4846 8.3137V8.3137Z" fill="#F1FDE1"/>
<path d="M101.232 10.3479H97.4157C97.4271 10.6924 97.5148 10.9992 97.6793 11.2672C97.8438 11.5358 98.0659 11.7432 98.3466 11.8902C98.6274 12.0371 98.9429 12.1106 99.2942 12.1106C99.5833 12.1106 99.851 12.0583 100.098 11.9538C100.344 11.8493 100.55 11.6951 100.714 11.4918L100.961 11.7717C100.768 12.0035 100.526 12.1814 100.234 12.3056C99.9424 12.4298 99.6263 12.4919 99.2864 12.4919C98.8443 12.4919 98.4504 12.3956 98.1048 12.2037C97.7592 12.0117 97.4883 11.7458 97.2932 11.4069C97.0976 11.068 97 10.681 97 10.2459C97 9.81082 97.0919 9.43106 97.2761 9.08908C97.4603 8.74709 97.7141 8.48013 98.0368 8.28818C98.3596 8.09623 98.7223 8 99.1245 8C99.5267 8 99.8879 8.09468 100.208 8.28404C100.528 8.4734 100.78 8.73726 100.965 9.07614C101.149 9.41503 101.241 9.79944 101.241 10.2289L101.232 10.3473L101.232 10.3479ZM98.2823 8.58101C98.0327 8.71967 97.8329 8.9142 97.6829 9.16565C97.5329 9.41709 97.4463 9.70113 97.4235 10.0173H100.824C100.806 9.70113 100.721 9.41865 100.569 9.16979C100.416 8.92145 100.214 8.7264 99.9652 8.58515C99.7156 8.44391 99.4354 8.37355 99.1235 8.37355C98.8116 8.37355 98.5314 8.44287 98.2823 8.58101V8.58101Z" fill="#F1FDE1"/>
<path d="M41.495 22.9823H43.2412V26.9309C42.73 27.3366 42.1338 27.648 41.4524 27.8648C40.7711 28.0816 40.0705 28.1902 39.3512 28.1902C38.3383 28.1902 37.4255 27.9709 36.6118 27.5321C35.7976 27.0934 35.1588 26.487 34.6954 25.7136C34.2314 24.9401 34 24.0673 34 23.0951C34 22.123 34.232 21.2507 34.6954 20.4767C35.1588 19.7032 35.8002 19.0968 36.6191 18.6581C37.4374 18.2194 38.358 18 39.3803 18C40.2132 18 40.9703 18.1371 41.6517 18.4103C42.333 18.684 42.9054 19.0849 43.3694 19.6132L42.2054 20.7452C41.4483 19.9903 40.5349 19.6132 39.4659 19.6132C38.7654 19.6132 38.1432 19.7596 37.5993 20.0519C37.055 20.3442 36.6289 20.755 36.3217 21.2833C36.014 21.812 35.8604 22.4153 35.8604 23.0946C35.8604 23.7739 36.014 24.3498 36.3217 24.878C36.6289 25.4068 37.055 25.8217 37.5993 26.1233C38.1432 26.4255 38.7607 26.576 39.4519 26.576C40.2277 26.576 40.9091 26.4063 41.496 26.0664V22.9813L41.495 22.9823Z" fill="#F1FDE1"/>
<path d="M45.959 27.2458C45.3435 26.9158 44.8635 26.4558 44.5179 25.866C44.1723 25.2767 44 24.6088 44 23.8632C44 23.1177 44.1728 22.4529 44.5179 21.8677C44.863 21.2826 45.3435 20.8252 45.959 20.4951C46.5739 20.165 47.2651 20 48.0316 20C48.798 20 49.5027 20.165 50.1182 20.4951C50.7331 20.8257 51.2137 21.2831 51.5593 21.8677C51.9044 22.4529 52.0772 23.1182 52.0772 23.8632C52.0772 24.6083 51.9044 25.2762 51.5593 25.866C51.2137 26.4558 50.7336 26.9158 50.1182 27.2458C49.5027 27.5765 48.8074 27.741 48.0316 27.741C47.2558 27.741 46.5739 27.5759 45.959 27.2458V27.2458ZM49.6496 25.5758C50.0756 25.1417 50.2884 24.571 50.2884 23.8632C50.2884 23.1555 50.0756 22.5848 49.6496 22.1507C49.2236 21.7167 48.6844 21.4999 48.0316 21.4999C47.3788 21.4999 46.8411 21.7172 46.4203 22.1507C45.9989 22.5848 45.7888 23.1555 45.7888 23.8632C45.7888 24.571 45.9994 25.1417 46.4203 25.5758C46.8411 26.0098 47.3782 26.2266 48.0316 26.2266C48.6849 26.2266 49.2241 26.0098 49.6496 25.5758V25.5758Z" fill="#F1FDE1"/>
<path d="M55.959 27.2458C55.3435 26.9158 54.8635 26.4558 54.5179 25.866C54.1723 25.2767 54 24.6088 54 23.8632C54 23.1177 54.1728 22.4529 54.5179 21.8677C54.863 21.2826 55.3435 20.8252 55.959 20.4951C56.5739 20.165 57.2651 20 58.0316 20C58.7981 20 59.5028 20.165 60.1182 20.4951C60.7332 20.8257 61.2137 21.2831 61.5593 21.8677C61.9044 22.4529 62.0772 23.1182 62.0772 23.8632C62.0772 24.6083 61.9044 25.2762 61.5593 25.866C61.2137 26.4558 60.7337 26.9158 60.1182 27.2458C59.5028 27.5765 58.8074 27.741 58.0316 27.741C57.2558 27.741 56.5739 27.5759 55.959 27.2458V27.2458ZM59.6496 25.5758C60.0757 25.1417 60.2884 24.571 60.2884 23.8632C60.2884 23.1555 60.0757 22.5848 59.6496 22.1507C59.2236 21.7167 58.6844 21.4999 58.0316 21.4999C57.3788 21.4999 56.8412 21.7172 56.4203 22.1507C55.9989 22.5848 55.7888 23.1555 55.7888 23.8632C55.7888 24.571 55.9995 25.1417 56.4203 25.5758C56.8412 26.0098 57.3783 26.2266 58.0316 26.2266C58.6849 26.2266 59.2241 26.0098 59.6496 25.5758V25.5758Z" fill="#F1FDE1"/>
<path d="M71.1483 20.0843V26.4957C71.1483 29.1565 69.7856 30.4867 67.0601 30.4867C66.3316 30.4867 65.6403 30.3946 64.9875 30.2109C64.3347 30.0267 63.795 29.7603 63.369 29.4111L64.164 28.0809C64.495 28.3546 64.9138 28.574 65.4203 28.739C65.9263 28.904 66.44 28.9868 66.9605 28.9868C67.7929 28.9868 68.4037 28.798 68.7918 28.4208C69.18 28.0431 69.3736 27.4678 69.3736 26.6943V26.298C69.0705 26.6286 68.7015 26.8785 68.2661 27.0482C67.8308 27.2179 67.3528 27.3028 66.8323 27.3028C66.1131 27.3028 65.4623 27.1496 64.8806 26.8428C64.2989 26.5365 63.8396 26.1045 63.5039 25.5478C63.1681 24.9911 63 24.3542 63 23.6372C63 22.9201 63.1681 22.2858 63.5039 21.7337C63.8396 21.1817 64.2989 20.7549 64.8806 20.4527C65.4629 20.1511 66.1131 20 66.8323 20C67.3808 20 67.8806 20.09 68.33 20.269C68.7794 20.4486 69.1556 20.7217 69.4587 21.0901V20.0854H71.1478L71.1483 20.0843ZM68.7565 25.2007C69.1873 24.7997 69.4026 24.2787 69.4026 23.6366C69.4026 22.9946 69.1873 22.4901 68.7565 22.0938C68.3258 21.6975 67.7747 21.4994 67.1027 21.4994C66.4307 21.4994 65.865 21.6975 65.4348 22.0938C65.0041 22.4901 64.7888 23.0044 64.7888 23.6366C64.7888 24.2689 65.0041 24.7997 65.4348 25.2007C65.865 25.6016 66.4213 25.8024 67.1027 25.8024C67.7841 25.8024 68.3258 25.6021 68.7565 25.2007Z" fill="#F1FDE1"/>
<path d="M73 17H74.7743V27.5012H73V17Z" fill="#F1FDE1"/>
<path d="M84.7223 24.4293H78.7742C78.878 24.986 79.1505 25.4273 79.5905 25.7527C80.0306 26.0781 80.577 26.2411 81.2298 26.2411C82.0627 26.2411 82.7487 25.9674 83.2879 25.42L84.2391 26.5096C83.8987 26.9152 83.4675 27.2221 82.9475 27.4295C82.427 27.637 81.8401 27.741 81.1873 27.741C80.3544 27.741 79.6211 27.5759 78.987 27.2458C78.3529 26.9158 77.863 26.4558 77.5179 25.866C77.1723 25.2767 77 24.6088 77 23.8632C77 23.1177 77.1681 22.4648 77.5039 21.875C77.8396 21.2852 78.3062 20.8252 78.9024 20.4951C79.4987 20.165 80.1707 20 80.918 20C81.6652 20 82.316 20.163 82.8982 20.4884C83.4799 20.8138 83.9345 21.2717 84.2609 21.861C84.5873 22.4508 84.7508 23.1327 84.7508 23.9062C84.7508 24.0288 84.7415 24.2032 84.7223 24.4298V24.4293ZM79.4769 21.9174C79.084 22.2527 78.8453 22.6981 78.7602 23.2548H83.0617C82.9859 22.7079 82.7539 22.264 82.3663 21.9246C81.9781 21.5852 81.4955 21.415 80.9185 21.415C80.3414 21.415 79.8702 21.5827 79.4774 21.9174H79.4769Z" fill="#F1FDE1"/>
<path d="M96.3383 18.4242C96.9771 18.7073 97.4669 19.1129 97.8074 19.6411C98.1483 20.1699 98.3185 20.7969 98.3185 21.5233C98.3185 22.2497 98.1483 22.8654 97.8074 23.3988C97.4669 23.9317 96.9771 24.3399 96.3383 24.6229C95.6995 24.9059 94.9491 25.0477 94.0882 25.0477H91.8453V27.9067H90V18H94.0882C94.9491 18 95.6995 18.1418 96.3383 18.4248V18.4242ZM95.8344 22.9813C96.2506 22.6414 96.4592 22.1556 96.4592 21.5233C96.4592 20.8911 96.2511 20.4053 95.8344 20.0654C95.4177 19.7254 94.8074 19.5557 94.0031 19.5557H91.8453V23.4904H94.0031C94.8074 23.4904 95.4177 23.3207 95.8344 22.9808V22.9813Z" fill="#F1FDE1"/>
<path d="M100 17H101.774V27.5012H100V17Z" fill="#F1FDE1"/>
<path d="M109.997 20.7993C110.589 21.3328 110.885 22.1368 110.885 23.2124V27.6422H109.21V26.7223C108.992 27.0529 108.682 27.3048 108.28 27.4792C107.877 27.6535 107.392 27.741 106.825 27.741C106.257 27.741 105.76 27.6442 105.334 27.4507C104.908 27.2572 104.58 26.9887 104.348 26.6441C104.116 26.3001 104 25.9105 104 25.4764C104 24.7971 104.253 24.2523 104.759 23.842C105.265 23.4318 106.063 23.2264 107.151 23.2264H109.11V23.1131C109.11 22.5848 108.951 22.1792 108.635 21.8962C108.318 21.6132 107.847 21.4714 107.222 21.4714C106.796 21.4714 106.377 21.5376 105.966 21.6696C105.554 21.802 105.207 21.9857 104.922 22.2216L104.227 20.9339C104.624 20.6322 105.102 20.401 105.661 20.2406C106.219 20.0802 106.811 20 107.435 20C108.552 20 109.406 20.2664 109.997 20.7999V20.7993ZM108.379 26.149C108.725 25.9462 108.968 25.656 109.11 25.2788V24.4013H107.279C106.257 24.4013 105.746 24.7366 105.746 25.4061C105.746 25.7268 105.874 25.9819 106.13 26.1702C106.385 26.3591 106.74 26.4532 107.195 26.4532C107.649 26.4532 108.034 26.3518 108.38 26.149H108.379Z" fill="#F1FDE1"/>
<path d="M120.503 20L116.954 28.1663C116.623 28.9873 116.221 29.5647 115.748 29.9C115.274 30.2347 114.702 30.4024 114.03 30.4024C113.651 30.4024 113.278 30.3408 112.909 30.2182C112.54 30.0956 112.237 29.9259 112 29.7086L112.71 28.4063C112.88 28.5667 113.081 28.694 113.313 28.7887C113.545 28.8828 113.779 28.9304 114.016 28.9304C114.328 28.9304 114.586 28.8502 114.79 28.6899C114.993 28.5295 115.18 28.2604 115.351 27.8833L115.478 27.5863L112.171 20.0005H114.016L116.401 25.5908L118.8 20.0005H120.504L120.503 20Z" fill="#F1FDE1"/>
<path d="M29.6932 18.7442L24.9231 16L21 19.781L24.5853 23.2365L29.6932 20.2973C29.9744 20.1359 30.1426 19.8451 30.1426 19.5213C30.1426 19.1974 29.9744 18.9066 29.6932 18.7447V18.7442Z" fill="#F1FDE1"/>
<path d="M24.7533 14.8983L19.5037 11.8774L8 6L20.9931 18.522L24.7533 14.8983Z" fill="#F1FDE1"/>
<path d="M8 32.3373L19.3325 26.1133L24.2245 23.2983L20.8021 20L8 32.3373Z" fill="#F1FDE1"/>
<path d="M7.01245 7L7 32.2893L20.1264 19.6385L7.01245 7Z" fill="#F1FDE1"/>
</svg>
