<svg width="20" height="20" viewBox="0 0 20 20" fill="none" xmlns="http://www.w3.org/2000/svg">
<path d="M9.99996 20C15.4607 20 20 15.4706 20 10C20 4.53922 15.4509 0 9.99017 0C4.51956 0 0 4.53922 0 10C0 15.4706 4.52939 20 9.99996 20ZM9.91174 6.50983C9.19603 6.50983 8.63722 5.94115 8.63722 5.23531C8.63722 4.5196 9.19603 3.95097 9.91174 3.95097C10.6274 3.95097 11.1862 4.5196 11.1862 5.23531C11.1862 5.94115 10.6274 6.50983 9.91174 6.50983ZM8.27447 15.3921C7.88232 15.3921 7.56859 15.1078 7.56859 14.7059C7.56859 14.3235 7.88232 14.0196 8.27447 14.0196H9.49996V9.51962H8.44112C8.04897 9.51962 7.73524 9.23531 7.73524 8.83332C7.73524 8.45095 8.04897 8.14706 8.44112 8.14706H10.2941C10.7843 8.14706 11.0588 8.50002 11.0588 9.02942V14.0196H12.2745C12.6764 14.0196 12.9901 14.3235 12.9901 14.7059C12.9901 15.1078 12.6764 15.3921 12.2745 15.3921H8.27447Z" fill="#237893"/>
</svg>
