<svg width="20" height="16" viewBox="0 0 20 16" fill="none" xmlns="http://www.w3.org/2000/svg">
<path d="M10.0181 8.89726C10.3985 8.89726 10.7427 8.7291 11.1322 8.33968L19.0125 0.7191C18.6775 0.40045 18.0525 0.25 17.1558 0.25H2.57247C1.81159 0.25 1.27717 0.391613 0.978276 0.683677L8.90397 8.33968C9.29345 8.72026 9.64669 8.89726 10.0181 8.89726ZM0.226473 14.075L6.63043 7.88829L0.208347 1.70152C0.0724635 1.94936 0 2.3742 0 2.98492V12.7562C0 13.3846 0.0815069 13.8272 0.226473 14.075ZM19.7917 14.0662C19.9275 13.8095 20 13.3758 20 12.7562V2.98492C20 2.39191 19.9365 1.96707 19.8006 1.72811L13.4057 7.88829L19.7917 14.0662ZM2.8442 15.5H17.4274C18.1883 15.5 18.7137 15.3584 19.0125 15.0752L12.4909 8.75565L11.884 9.34865C11.2681 9.93281 10.6793 10.1983 10.0181 10.1983C9.35683 10.1983 8.76808 9.93281 8.15216 9.34865L7.54528 8.75565L1.03261 15.0663C1.37681 15.3584 1.98368 15.5 2.8442 15.5Z" fill="#222222"/>
</svg>
