<svg width="155" height="155" viewBox="0 0 155 155" fill="none" xmlns="http://www.w3.org/2000/svg">
<path d="M62.3544 28.3H58.7796V31.8747H62.3544V28.3Z" fill="#01313D"/>
<path d="M72.5142 28.3H68.9395V31.8747H72.5142V28.3Z" fill="#01313D"/>
<path d="M75.9008 28.3H72.326V31.8747H75.9008V28.3Z" fill="#01313D"/>
<path d="M86.0607 28.3H82.4859V31.8747H86.0607V28.3Z" fill="#01313D"/>
<path d="M92.8339 28.3H89.2591V31.8747H92.8339V28.3Z" fill="#01313D"/>
<path d="M96.2205 28.3H92.6458V31.8747H96.2205V28.3Z" fill="#01313D"/>
<path d="M65.741 31.6866H62.1662V35.2613H65.741V31.6866Z" fill="#01313D"/>
<path d="M69.1276 31.6866H65.5528V35.2613H69.1276V31.6866Z" fill="#01313D"/>
<path d="M72.5142 31.6866H68.9395V35.2613H72.5142V31.6866Z" fill="#01313D"/>
<path d="M79.2874 31.6866H75.7126V35.2613H79.2874V31.6866Z" fill="#01313D"/>
<path d="M82.6741 31.6866H79.0993V35.2613H82.6741V31.6866Z" fill="#01313D"/>
<path d="M86.0607 31.6866H82.4859V35.2613H86.0607V31.6866Z" fill="#01313D"/>
<path d="M89.4473 31.6866H85.8725V35.2613H89.4473V31.6866Z" fill="#01313D"/>
<path d="M92.8339 31.6866H89.2591V35.2613H92.8339V31.6866Z" fill="#01313D"/>
<path d="M96.2205 31.6866H92.6458V35.2613H96.2205V31.6866Z" fill="#01313D"/>
<path d="M58.9677 35.0732H55.3929V38.648H58.9677V35.0732Z" fill="#01313D"/>
<path d="M62.3544 35.0732H58.7796V38.648H62.3544V35.0732Z" fill="#01313D"/>
<path d="M65.741 35.0732H62.1662V38.648H65.741V35.0732Z" fill="#01313D"/>
<path d="M72.5142 35.0732H68.9395V38.648H72.5142V35.0732Z" fill="#01313D"/>
<path d="M75.9008 35.0732H72.326V38.648H75.9008V35.0732Z" fill="#01313D"/>
<path d="M79.2874 35.0732H75.7126V38.648H79.2874V35.0732Z" fill="#01313D"/>
<path d="M86.0607 35.0732H82.4859V38.648H86.0607V35.0732Z" fill="#01313D"/>
<path d="M99.607 35.0732H96.0323V38.648H99.607V35.0732Z" fill="#01313D"/>
<path d="M62.3544 38.4598H58.7796V42.0346H62.3544V38.4598Z" fill="#01313D"/>
<path d="M65.741 38.4598H62.1662V42.0346H65.741V38.4598Z" fill="#01313D"/>
<path d="M69.1276 38.4598H65.5528V42.0346H69.1276V38.4598Z" fill="#01313D"/>
<path d="M75.9008 38.4598H72.326V42.0346H75.9008V38.4598Z" fill="#01313D"/>
<path d="M79.2874 38.4598H75.7126V42.0346H79.2874V38.4598Z" fill="#01313D"/>
<path d="M82.6741 38.4598H79.0993V42.0346H82.6741V38.4598Z" fill="#01313D"/>
<path d="M92.8339 38.4598H89.2591V42.0346H92.8339V38.4598Z" fill="#01313D"/>
<path d="M96.2205 38.4598H92.6458V42.0346H96.2205V38.4598Z" fill="#01313D"/>
<path d="M99.607 38.4598H96.0323V42.0346H99.607V38.4598Z" fill="#01313D"/>
<path d="M65.741 41.8464H62.1662V45.4211H65.741V41.8464Z" fill="#01313D"/>
<path d="M79.2874 41.8464H75.7126V45.4211H79.2874V41.8464Z" fill="#01313D"/>
<path d="M96.2205 41.8464H92.6458V45.4211H96.2205V41.8464Z" fill="#01313D"/>
<path d="M62.3544 45.233H58.7796V48.8078H62.3544V45.233Z" fill="#01313D"/>
<path d="M75.9008 45.233H72.326V48.8078H75.9008V45.233Z" fill="#01313D"/>
<path d="M89.4473 45.233H85.8725V48.8078H89.4473V45.233Z" fill="#01313D"/>
<path d="M92.8339 45.233H89.2591V48.8078H92.8339V45.233Z" fill="#01313D"/>
<path d="M96.2205 45.233H92.6458V48.8078H96.2205V45.233Z" fill="#01313D"/>
<path d="M99.607 45.233H96.0323V48.8078H99.607V45.233Z" fill="#01313D"/>
<path d="M58.9677 48.6197H55.3929V52.1944H58.9677V48.6197Z" fill="#01313D"/>
<path d="M65.741 48.6197H62.1662V52.1944H65.741V48.6197Z" fill="#01313D"/>
<path d="M72.5142 48.6197H68.9395V52.1944H72.5142V48.6197Z" fill="#01313D"/>
<path d="M79.2874 48.6197H75.7126V52.1944H79.2874V48.6197Z" fill="#01313D"/>
<path d="M86.0607 48.6197H82.4859V52.1944H86.0607V48.6197Z" fill="#01313D"/>
<path d="M92.8339 48.6197H89.2591V52.1944H92.8339V48.6197Z" fill="#01313D"/>
<path d="M99.607 48.6197H96.0323V52.1944H99.607V48.6197Z" fill="#01313D"/>
<path d="M58.9677 52.0063H55.3929V55.581H58.9677V52.0063Z" fill="#01313D"/>
<path d="M62.3544 52.0063H58.7796V55.581H62.3544V52.0063Z" fill="#01313D"/>
<path d="M65.741 52.0063H62.1662V55.581H65.741V52.0063Z" fill="#01313D"/>
<path d="M72.5142 52.0063H68.9395V55.581H72.5142V52.0063Z" fill="#01313D"/>
<path d="M75.9008 52.0063H72.326V55.581H75.9008V52.0063Z" fill="#01313D"/>
<path d="M79.2874 52.0063H75.7126V55.581H79.2874V52.0063Z" fill="#01313D"/>
<path d="M86.0607 52.0063H82.4859V55.581H86.0607V52.0063Z" fill="#01313D"/>
<path d="M89.4473 52.0063H85.8725V55.581H89.4473V52.0063Z" fill="#01313D"/>
<path d="M99.607 52.0063H96.0323V55.581H99.607V52.0063Z" fill="#01313D"/>
<path d="M31.8748 55.3929H28.3V58.9677H31.8748V55.3929Z" fill="#01313D"/>
<path d="M35.2615 55.3929H31.6867V58.9677H35.2615V55.3929Z" fill="#01313D"/>
<path d="M38.648 55.3929H35.0732V58.9677H38.648V55.3929Z" fill="#01313D"/>
<path d="M45.4213 55.3929H41.8466V58.9677H45.4213V55.3929Z" fill="#01313D"/>
<path d="M48.8079 55.3929H45.2331V58.9677H48.8079V55.3929Z" fill="#01313D"/>
<path d="M52.1945 55.3929H48.6198V58.9677H52.1945V55.3929Z" fill="#01313D"/>
<path d="M55.5811 55.3929H52.0063V58.9677H55.5811V55.3929Z" fill="#01313D"/>
<path d="M58.9677 55.3929H55.3929V58.9677H58.9677V55.3929Z" fill="#01313D"/>
<path d="M65.741 55.3929H62.1662V58.9677H65.741V55.3929Z" fill="#01313D"/>
<path d="M69.1276 55.3929H65.5528V58.9677H69.1276V55.3929Z" fill="#01313D"/>
<path d="M79.2874 55.3929H75.7126V58.9677H79.2874V55.3929Z" fill="#01313D"/>
<path d="M82.6741 55.3929H79.0993V58.9677H82.6741V55.3929Z" fill="#01313D"/>
<path d="M86.0607 55.3929H82.4859V58.9677H86.0607V55.3929Z" fill="#01313D"/>
<path d="M89.4473 55.3929H85.8725V58.9677H89.4473V55.3929Z" fill="#01313D"/>
<path d="M96.2205 55.3929H92.6458V58.9677H96.2205V55.3929Z" fill="#01313D"/>
<path d="M99.607 55.3929H96.0323V58.9677H99.607V55.3929Z" fill="#01313D"/>
<path d="M102.994 55.3929H99.419V58.9677H102.994V55.3929Z" fill="#01313D"/>
<path d="M106.38 55.3929H102.806V58.9677H106.38V55.3929Z" fill="#01313D"/>
<path d="M119.927 55.3929H116.352V58.9677H119.927V55.3929Z" fill="#01313D"/>
<path d="M38.648 58.7795H35.0732V62.3543H38.648V58.7795Z" fill="#01313D"/>
<path d="M45.4213 58.7795H41.8466V62.3543H45.4213V58.7795Z" fill="#01313D"/>
<path d="M58.9677 58.7795H55.3929V62.3543H58.9677V58.7795Z" fill="#01313D"/>
<path d="M65.741 58.7795H62.1662V62.3543H65.741V58.7795Z" fill="#01313D"/>
<path d="M69.1276 58.7795H65.5528V62.3543H69.1276V58.7795Z" fill="#01313D"/>
<path d="M79.2874 58.7795H75.7126V62.3543H79.2874V58.7795Z" fill="#01313D"/>
<path d="M82.6741 58.7795H79.0993V62.3543H82.6741V58.7795Z" fill="#01313D"/>
<path d="M89.4473 58.7795H85.8725V62.3543H89.4473V58.7795Z" fill="#01313D"/>
<path d="M102.994 58.7795H99.419V62.3543H102.994V58.7795Z" fill="#01313D"/>
<path d="M106.38 58.7795H102.806V62.3543H106.38V58.7795Z" fill="#01313D"/>
<path d="M116.54 58.7795H112.965V62.3543H116.54V58.7795Z" fill="#01313D"/>
<path d="M126.7 58.7795H123.125V62.3543H126.7V58.7795Z" fill="#01313D"/>
<path d="M31.8748 62.1661H28.3V65.7408H31.8748V62.1661Z" fill="#01313D"/>
<path d="M38.648 62.1661H35.0732V65.7408H38.648V62.1661Z" fill="#01313D"/>
<path d="M42.0347 62.1661H38.4599V65.7408H42.0347V62.1661Z" fill="#01313D"/>
<path d="M45.4213 62.1661H41.8466V65.7408H45.4213V62.1661Z" fill="#01313D"/>
<path d="M48.8079 62.1661H45.2331V65.7408H48.8079V62.1661Z" fill="#01313D"/>
<path d="M52.1945 62.1661H48.6198V65.7408H52.1945V62.1661Z" fill="#01313D"/>
<path d="M55.5811 62.1661H52.0063V65.7408H55.5811V62.1661Z" fill="#01313D"/>
<path d="M58.9677 62.1661H55.3929V65.7408H58.9677V62.1661Z" fill="#01313D"/>
<path d="M62.3544 62.1661H58.7796V65.7408H62.3544V62.1661Z" fill="#01313D"/>
<path d="M75.9008 62.1661H72.326V65.7408H75.9008V62.1661Z" fill="#01313D"/>
<path d="M89.4473 62.1661H85.8725V65.7408H89.4473V62.1661Z" fill="#01313D"/>
<path d="M92.8339 62.1661H89.2591V65.7408H92.8339V62.1661Z" fill="#01313D"/>
<path d="M119.927 62.1661H116.352V65.7408H119.927V62.1661Z" fill="#01313D"/>
<path d="M123.313 62.1661H119.739V65.7408H123.313V62.1661Z" fill="#01313D"/>
<path d="M126.7 62.1661H123.125V65.7408H126.7V62.1661Z" fill="#01313D"/>
<path d="M31.8748 65.5527H28.3V69.1275H31.8748V65.5527Z" fill="#01313D"/>
<path d="M35.2615 65.5527H31.6867V69.1275H35.2615V65.5527Z" fill="#01313D"/>
<path d="M45.4213 65.5527H41.8466V69.1275H45.4213V65.5527Z" fill="#01313D"/>
<path d="M69.1276 65.5527H65.5528V69.1275H69.1276V65.5527Z" fill="#01313D"/>
<path d="M86.0607 65.5527H82.4859V69.1275H86.0607V65.5527Z" fill="#01313D"/>
<path d="M89.4473 65.5527H85.8725V69.1275H89.4473V65.5527Z" fill="#01313D"/>
<path d="M92.8339 65.5527H89.2591V69.1275H92.8339V65.5527Z" fill="#01313D"/>
<path d="M96.2205 65.5527H92.6458V69.1275H96.2205V65.5527Z" fill="#01313D"/>
<path d="M99.607 65.5527H96.0323V69.1275H99.607V65.5527Z" fill="#01313D"/>
<path d="M123.313 65.5527H119.739V69.1275H123.313V65.5527Z" fill="#01313D"/>
<path d="M38.648 68.9393H35.0732V72.5141H38.648V68.9393Z" fill="#01313D"/>
<path d="M42.0347 68.9393H38.4599V72.5141H42.0347V68.9393Z" fill="#01313D"/>
<path d="M52.1945 68.9393H48.6198V72.5141H52.1945V68.9393Z" fill="#01313D"/>
<path d="M55.5811 68.9393H52.0063V72.5141H55.5811V68.9393Z" fill="#01313D"/>
<path d="M72.5142 68.9393H68.9395V72.5141H72.5142V68.9393Z" fill="#01313D"/>
<path d="M82.6741 68.9393H79.0993V72.5141H82.6741V68.9393Z" fill="#01313D"/>
<path d="M86.0607 68.9393H82.4859V72.5141H86.0607V68.9393Z" fill="#01313D"/>
<path d="M89.4473 68.9393H85.8725V72.5141H89.4473V68.9393Z" fill="#01313D"/>
<path d="M99.607 68.9393H96.0323V72.5141H99.607V68.9393Z" fill="#01313D"/>
<path d="M102.994 68.9393H99.419V72.5141H102.994V68.9393Z" fill="#01313D"/>
<path d="M106.38 68.9393H102.806V72.5141H106.38V68.9393Z" fill="#01313D"/>
<path d="M116.54 68.9393H112.965V72.5141H116.54V68.9393Z" fill="#01313D"/>
<path d="M123.313 68.9393H119.739V72.5141H123.313V68.9393Z" fill="#01313D"/>
<path d="M126.7 68.9393H123.125V72.5141H126.7V68.9393Z" fill="#01313D"/>
<path d="M31.8748 72.326H28.3V75.9007H31.8748V72.326Z" fill="#01313D"/>
<path d="M38.648 72.326H35.0732V75.9007H38.648V72.326Z" fill="#01313D"/>
<path d="M42.0347 72.326H38.4599V75.9007H42.0347V72.326Z" fill="#01313D"/>
<path d="M45.4213 72.326H41.8466V75.9007H45.4213V72.326Z" fill="#01313D"/>
<path d="M48.8079 72.326H45.2331V75.9007H48.8079V72.326Z" fill="#01313D"/>
<path d="M58.9677 72.326H55.3929V75.9007H58.9677V72.326Z" fill="#01313D"/>
<path d="M62.3544 72.326H58.7796V75.9007H62.3544V72.326Z" fill="#01313D"/>
<path d="M69.1276 72.326H65.5528V75.9007H69.1276V72.326Z" fill="#01313D"/>
<path d="M72.5142 72.326H68.9395V75.9007H72.5142V72.326Z" fill="#01313D"/>
<path d="M75.9008 72.326H72.326V75.9007H75.9008V72.326Z" fill="#01313D"/>
<path d="M86.0607 72.326H82.4859V75.9007H86.0607V72.326Z" fill="#01313D"/>
<path d="M99.607 72.326H96.0323V75.9007H99.607V72.326Z" fill="#01313D"/>
<path d="M102.994 72.326H99.419V75.9007H102.994V72.326Z" fill="#01313D"/>
<path d="M106.38 72.326H102.806V75.9007H106.38V72.326Z" fill="#01313D"/>
<path d="M116.54 72.326H112.965V75.9007H116.54V72.326Z" fill="#01313D"/>
<path d="M126.7 72.326H123.125V75.9007H126.7V72.326Z" fill="#01313D"/>
<path d="M31.8748 75.7126H28.3V79.2874H31.8748V75.7126Z" fill="#01313D"/>
<path d="M48.8079 75.7126H45.2331V79.2874H48.8079V75.7126Z" fill="#01313D"/>
<path d="M52.1945 75.7126H48.6198V79.2874H52.1945V75.7126Z" fill="#01313D"/>
<path d="M58.9677 75.7126H55.3929V79.2874H58.9677V75.7126Z" fill="#01313D"/>
<path d="M62.3544 75.7126H58.7796V79.2874H62.3544V75.7126Z" fill="#01313D"/>
<path d="M69.1276 75.7126H65.5528V79.2874H69.1276V75.7126Z" fill="#01313D"/>
<path d="M72.5142 75.7126H68.9395V79.2874H72.5142V75.7126Z" fill="#01313D"/>
<path d="M79.2874 75.7126H75.7126V79.2874H79.2874V75.7126Z" fill="#01313D"/>
<path d="M102.994 75.7126H99.419V79.2874H102.994V75.7126Z" fill="#01313D"/>
<path d="M106.38 75.7126H102.806V79.2874H106.38V75.7126Z" fill="#01313D"/>
<path d="M116.54 75.7126H112.965V79.2874H116.54V75.7126Z" fill="#01313D"/>
<path d="M123.313 75.7126H119.739V79.2874H123.313V75.7126Z" fill="#01313D"/>
<path d="M126.7 75.7126H123.125V79.2874H126.7V75.7126Z" fill="#01313D"/>
<path d="M35.2615 79.0992H31.6867V82.6739H35.2615V79.0992Z" fill="#01313D"/>
<path d="M38.648 79.0992H35.0732V82.6739H38.648V79.0992Z" fill="#01313D"/>
<path d="M42.0347 79.0992H38.4599V82.6739H42.0347V79.0992Z" fill="#01313D"/>
<path d="M45.4213 79.0992H41.8466V82.6739H45.4213V79.0992Z" fill="#01313D"/>
<path d="M55.5811 79.0992H52.0063V82.6739H55.5811V79.0992Z" fill="#01313D"/>
<path d="M62.3544 79.0992H58.7796V82.6739H62.3544V79.0992Z" fill="#01313D"/>
<path d="M65.741 79.0992H62.1662V82.6739H65.741V79.0992Z" fill="#01313D"/>
<path d="M72.5142 79.0992H68.9395V82.6739H72.5142V79.0992Z" fill="#01313D"/>
<path d="M75.9008 79.0992H72.326V82.6739H75.9008V79.0992Z" fill="#01313D"/>
<path d="M79.2874 79.0992H75.7126V82.6739H79.2874V79.0992Z" fill="#01313D"/>
<path d="M86.0607 79.0992H82.4859V82.6739H86.0607V79.0992Z" fill="#01313D"/>
<path d="M89.4473 79.0992H85.8725V82.6739H89.4473V79.0992Z" fill="#01313D"/>
<path d="M99.607 79.0992H96.0323V82.6739H99.607V79.0992Z" fill="#01313D"/>
<path d="M106.38 79.0992H102.806V82.6739H106.38V79.0992Z" fill="#01313D"/>
<path d="M113.154 79.0992H109.579V82.6739H113.154V79.0992Z" fill="#01313D"/>
<path d="M116.54 79.0992H112.965V82.6739H116.54V79.0992Z" fill="#01313D"/>
<path d="M123.313 79.0992H119.739V82.6739H123.313V79.0992Z" fill="#01313D"/>
<path d="M35.2615 82.4858H31.6867V86.0605H35.2615V82.4858Z" fill="#01313D"/>
<path d="M42.0347 82.4858H38.4599V86.0605H42.0347V82.4858Z" fill="#01313D"/>
<path d="M52.1945 82.4858H48.6198V86.0605H52.1945V82.4858Z" fill="#01313D"/>
<path d="M69.1276 82.4858H65.5528V86.0605H69.1276V82.4858Z" fill="#01313D"/>
<path d="M79.2874 82.4858H75.7126V86.0605H79.2874V82.4858Z" fill="#01313D"/>
<path d="M86.0607 82.4858H82.4859V86.0605H86.0607V82.4858Z" fill="#01313D"/>
<path d="M89.4473 82.4858H85.8725V86.0605H89.4473V82.4858Z" fill="#01313D"/>
<path d="M99.607 82.4858H96.0323V86.0605H99.607V82.4858Z" fill="#01313D"/>
<path d="M102.994 82.4858H99.419V86.0605H102.994V82.4858Z" fill="#01313D"/>
<path d="M106.38 82.4858H102.806V86.0605H106.38V82.4858Z" fill="#01313D"/>
<path d="M116.54 82.4858H112.965V86.0605H116.54V82.4858Z" fill="#01313D"/>
<path d="M123.313 82.4858H119.739V86.0605H123.313V82.4858Z" fill="#01313D"/>
<path d="M126.7 82.4858H123.125V86.0605H126.7V82.4858Z" fill="#01313D"/>
<path d="M45.4213 85.8724H41.8466V89.4472H45.4213V85.8724Z" fill="#01313D"/>
<path d="M48.8079 85.8724H45.2331V89.4472H48.8079V85.8724Z" fill="#01313D"/>
<path d="M69.1276 85.8724H65.5528V89.4472H69.1276V85.8724Z" fill="#01313D"/>
<path d="M79.2874 85.8724H75.7126V89.4472H79.2874V85.8724Z" fill="#01313D"/>
<path d="M86.0607 85.8724H82.4859V89.4472H86.0607V85.8724Z" fill="#01313D"/>
<path d="M99.607 85.8724H96.0323V89.4472H99.607V85.8724Z" fill="#01313D"/>
<path d="M102.994 85.8724H99.419V89.4472H102.994V85.8724Z" fill="#01313D"/>
<path d="M106.38 85.8724H102.806V89.4472H106.38V85.8724Z" fill="#01313D"/>
<path d="M109.767 85.8724H106.192V89.4472H109.767V85.8724Z" fill="#01313D"/>
<path d="M116.54 85.8724H112.965V89.4472H116.54V85.8724Z" fill="#01313D"/>
<path d="M119.927 85.8724H116.352V89.4472H119.927V85.8724Z" fill="#01313D"/>
<path d="M126.7 85.8724H123.125V89.4472H126.7V85.8724Z" fill="#01313D"/>
<path d="M31.8748 89.259H28.3V92.8338H31.8748V89.259Z" fill="#01313D"/>
<path d="M45.4213 89.259H41.8466V92.8338H45.4213V89.259Z" fill="#01313D"/>
<path d="M52.1945 89.259H48.6198V92.8338H52.1945V89.259Z" fill="#01313D"/>
<path d="M58.9677 89.259H55.3929V92.8338H58.9677V89.259Z" fill="#01313D"/>
<path d="M62.3544 89.259H58.7796V92.8338H62.3544V89.259Z" fill="#01313D"/>
<path d="M65.741 89.259H62.1662V92.8338H65.741V89.259Z" fill="#01313D"/>
<path d="M75.9008 89.259H72.326V92.8338H75.9008V89.259Z" fill="#01313D"/>
<path d="M89.4473 89.259H85.8725V92.8338H89.4473V89.259Z" fill="#01313D"/>
<path d="M102.994 89.259H99.419V92.8338H102.994V89.259Z" fill="#01313D"/>
<path d="M123.313 89.259H119.739V92.8338H123.313V89.259Z" fill="#01313D"/>
<path d="M126.7 89.259H123.125V92.8338H126.7V89.259Z" fill="#01313D"/>
<path d="M35.2615 92.6456H31.6867V96.2203H35.2615V92.6456Z" fill="#01313D"/>
<path d="M42.0347 92.6456H38.4599V96.2203H42.0347V92.6456Z" fill="#01313D"/>
<path d="M48.8079 92.6456H45.2331V96.2203H48.8079V92.6456Z" fill="#01313D"/>
<path d="M58.9677 92.6456H55.3929V96.2203H58.9677V92.6456Z" fill="#01313D"/>
<path d="M69.1276 92.6456H65.5528V96.2203H69.1276V92.6456Z" fill="#01313D"/>
<path d="M82.6741 92.6456H79.0993V96.2203H82.6741V92.6456Z" fill="#01313D"/>
<path d="M89.4473 92.6456H85.8725V96.2203H89.4473V92.6456Z" fill="#01313D"/>
<path d="M92.8339 92.6456H89.2591V96.2203H92.8339V92.6456Z" fill="#01313D"/>
<path d="M96.2205 92.6456H92.6458V96.2203H96.2205V92.6456Z" fill="#01313D"/>
<path d="M106.38 92.6456H102.806V96.2203H106.38V92.6456Z" fill="#01313D"/>
<path d="M109.767 92.6456H106.192V96.2203H109.767V92.6456Z" fill="#01313D"/>
<path d="M116.54 92.6456H112.965V96.2203H116.54V92.6456Z" fill="#01313D"/>
<path d="M123.313 92.6456H119.739V96.2203H123.313V92.6456Z" fill="#01313D"/>
<path d="M31.8748 96.0323H28.3V99.6071H31.8748V96.0323Z" fill="#01313D"/>
<path d="M38.648 96.0323H35.0732V99.6071H38.648V96.0323Z" fill="#01313D"/>
<path d="M45.4213 96.0323H41.8466V99.6071H45.4213V96.0323Z" fill="#01313D"/>
<path d="M48.8079 96.0323H45.2331V99.6071H48.8079V96.0323Z" fill="#01313D"/>
<path d="M52.1945 96.0323H48.6198V99.6071H52.1945V96.0323Z" fill="#01313D"/>
<path d="M55.5811 96.0323H52.0063V99.6071H55.5811V96.0323Z" fill="#01313D"/>
<path d="M65.741 96.0323H62.1662V99.6071H65.741V96.0323Z" fill="#01313D"/>
<path d="M72.5142 96.0323H68.9395V99.6071H72.5142V96.0323Z" fill="#01313D"/>
<path d="M82.6741 96.0323H79.0993V99.6071H82.6741V96.0323Z" fill="#01313D"/>
<path d="M86.0607 96.0323H82.4859V99.6071H86.0607V96.0323Z" fill="#01313D"/>
<path d="M89.4473 96.0323H85.8725V99.6071H89.4473V96.0323Z" fill="#01313D"/>
<path d="M99.607 96.0323H96.0323V99.6071H99.607V96.0323Z" fill="#01313D"/>
<path d="M102.994 96.0323H99.419V99.6071H102.994V96.0323Z" fill="#01313D"/>
<path d="M106.38 96.0323H102.806V99.6071H106.38V96.0323Z" fill="#01313D"/>
<path d="M109.767 96.0323H106.192V99.6071H109.767V96.0323Z" fill="#01313D"/>
<path d="M113.154 96.0323H109.579V99.6071H113.154V96.0323Z" fill="#01313D"/>
<path d="M58.9677 99.4189H55.3929V102.994H58.9677V99.4189Z" fill="#01313D"/>
<path d="M62.3544 99.4189H58.7796V102.994H62.3544V99.4189Z" fill="#01313D"/>
<path d="M69.1276 99.4189H65.5528V102.994H69.1276V99.4189Z" fill="#01313D"/>
<path d="M72.5142 99.4189H68.9395V102.994H72.5142V99.4189Z" fill="#01313D"/>
<path d="M75.9008 99.4189H72.326V102.994H75.9008V99.4189Z" fill="#01313D"/>
<path d="M86.0607 99.4189H82.4859V102.994H86.0607V99.4189Z" fill="#01313D"/>
<path d="M89.4473 99.4189H85.8725V102.994H89.4473V99.4189Z" fill="#01313D"/>
<path d="M92.8339 99.4189H89.2591V102.994H92.8339V99.4189Z" fill="#01313D"/>
<path d="M96.2205 99.4189H92.6458V102.994H96.2205V99.4189Z" fill="#01313D"/>
<path d="M99.607 99.4189H96.0323V102.994H99.607V99.4189Z" fill="#01313D"/>
<path d="M113.154 99.4189H109.579V102.994H113.154V99.4189Z" fill="#01313D"/>
<path d="M119.927 99.4189H116.352V102.994H119.927V99.4189Z" fill="#01313D"/>
<path d="M123.313 99.4189H119.739V102.994H123.313V99.4189Z" fill="#01313D"/>
<path d="M126.7 99.4189H123.125V102.994H126.7V99.4189Z" fill="#01313D"/>
<path d="M58.9677 102.805H55.3929V106.38H58.9677V102.805Z" fill="#01313D"/>
<path d="M62.3544 102.805H58.7796V106.38H62.3544V102.805Z" fill="#01313D"/>
<path d="M65.741 102.805H62.1662V106.38H65.741V102.805Z" fill="#01313D"/>
<path d="M69.1276 102.805H65.5528V106.38H69.1276V102.805Z" fill="#01313D"/>
<path d="M72.5142 102.805H68.9395V106.38H72.5142V102.805Z" fill="#01313D"/>
<path d="M79.2874 102.805H75.7126V106.38H79.2874V102.805Z" fill="#01313D"/>
<path d="M86.0607 102.805H82.4859V106.38H86.0607V102.805Z" fill="#01313D"/>
<path d="M96.2205 102.805H92.6458V106.38H96.2205V102.805Z" fill="#01313D"/>
<path d="M99.607 102.805H96.0323V106.38H99.607V102.805Z" fill="#01313D"/>
<path d="M106.38 102.805H102.806V106.38H106.38V102.805Z" fill="#01313D"/>
<path d="M113.154 102.805H109.579V106.38H113.154V102.805Z" fill="#01313D"/>
<path d="M116.54 102.805H112.965V106.38H116.54V102.805Z" fill="#01313D"/>
<path d="M123.313 102.805H119.739V106.38H123.313V102.805Z" fill="#01313D"/>
<path d="M126.7 102.805H123.125V106.38H126.7V102.805Z" fill="#01313D"/>
<path d="M58.9677 106.192H55.3929V109.767H58.9677V106.192Z" fill="#01313D"/>
<path d="M62.3544 106.192H58.7796V109.767H62.3544V106.192Z" fill="#01313D"/>
<path d="M65.741 106.192H62.1662V109.767H65.741V106.192Z" fill="#01313D"/>
<path d="M72.5142 106.192H68.9395V109.767H72.5142V106.192Z" fill="#01313D"/>
<path d="M75.9008 106.192H72.326V109.767H75.9008V106.192Z" fill="#01313D"/>
<path d="M79.2874 106.192H75.7126V109.767H79.2874V106.192Z" fill="#01313D"/>
<path d="M86.0607 106.192H82.4859V109.767H86.0607V106.192Z" fill="#01313D"/>
<path d="M89.4473 106.192H85.8725V109.767H89.4473V106.192Z" fill="#01313D"/>
<path d="M92.8339 106.192H89.2591V109.767H92.8339V106.192Z" fill="#01313D"/>
<path d="M99.607 106.192H96.0323V109.767H99.607V106.192Z" fill="#01313D"/>
<path d="M113.154 106.192H109.579V109.767H113.154V106.192Z" fill="#01313D"/>
<path d="M116.54 106.192H112.965V109.767H116.54V106.192Z" fill="#01313D"/>
<path d="M123.313 106.192H119.739V109.767H123.313V106.192Z" fill="#01313D"/>
<path d="M126.7 106.192H123.125V109.767H126.7V106.192Z" fill="#01313D"/>
<path d="M58.9677 109.579H55.3929V113.153H58.9677V109.579Z" fill="#01313D"/>
<path d="M65.741 109.579H62.1662V113.153H65.741V109.579Z" fill="#01313D"/>
<path d="M69.1276 109.579H65.5528V113.153H69.1276V109.579Z" fill="#01313D"/>
<path d="M79.2874 109.579H75.7126V113.153H79.2874V109.579Z" fill="#01313D"/>
<path d="M86.0607 109.579H82.4859V113.153H86.0607V109.579Z" fill="#01313D"/>
<path d="M89.4473 109.579H85.8725V113.153H89.4473V109.579Z" fill="#01313D"/>
<path d="M99.607 109.579H96.0323V113.153H99.607V109.579Z" fill="#01313D"/>
<path d="M102.994 109.579H99.419V113.153H102.994V109.579Z" fill="#01313D"/>
<path d="M106.38 109.579H102.806V113.153H106.38V109.579Z" fill="#01313D"/>
<path d="M109.767 109.579H106.192V113.153H109.767V109.579Z" fill="#01313D"/>
<path d="M113.154 109.579H109.579V113.153H113.154V109.579Z" fill="#01313D"/>
<path d="M126.7 109.579H123.125V113.153H126.7V109.579Z" fill="#01313D"/>
<path d="M62.3544 112.965H58.7796V116.54H62.3544V112.965Z" fill="#01313D"/>
<path d="M65.741 112.965H62.1662V116.54H65.741V112.965Z" fill="#01313D"/>
<path d="M69.1276 112.965H65.5528V116.54H69.1276V112.965Z" fill="#01313D"/>
<path d="M79.2874 112.965H75.7126V116.54H79.2874V112.965Z" fill="#01313D"/>
<path d="M86.0607 112.965H82.4859V116.54H86.0607V112.965Z" fill="#01313D"/>
<path d="M89.4473 112.965H85.8725V116.54H89.4473V112.965Z" fill="#01313D"/>
<path d="M96.2205 112.965H92.6458V116.54H96.2205V112.965Z" fill="#01313D"/>
<path d="M102.994 112.965H99.419V116.54H102.994V112.965Z" fill="#01313D"/>
<path d="M113.154 112.965H109.579V116.54H113.154V112.965Z" fill="#01313D"/>
<path d="M119.927 112.965H116.352V116.54H119.927V112.965Z" fill="#01313D"/>
<path d="M123.313 112.965H119.739V116.54H123.313V112.965Z" fill="#01313D"/>
<path d="M126.7 112.965H123.125V116.54H126.7V112.965Z" fill="#01313D"/>
<path d="M58.9677 116.352H55.3929V119.927H58.9677V116.352Z" fill="#01313D"/>
<path d="M62.3544 116.352H58.7796V119.927H62.3544V116.352Z" fill="#01313D"/>
<path d="M65.741 116.352H62.1662V119.927H65.741V116.352Z" fill="#01313D"/>
<path d="M75.9008 116.352H72.326V119.927H75.9008V116.352Z" fill="#01313D"/>
<path d="M99.607 116.352H96.0323V119.927H99.607V116.352Z" fill="#01313D"/>
<path d="M109.767 116.352H106.192V119.927H109.767V116.352Z" fill="#01313D"/>
<path d="M113.154 116.352H109.579V119.927H113.154V116.352Z" fill="#01313D"/>
<path d="M116.54 116.352H112.965V119.927H116.54V116.352Z" fill="#01313D"/>
<path d="M126.7 116.352H123.125V119.927H126.7V116.352Z" fill="#01313D"/>
<path d="M58.9677 119.739H55.3929V123.313H58.9677V119.739Z" fill="#01313D"/>
<path d="M65.741 119.739H62.1662V123.313H65.741V119.739Z" fill="#01313D"/>
<path d="M69.1276 119.739H65.5528V123.313H69.1276V119.739Z" fill="#01313D"/>
<path d="M82.6741 119.739H79.0993V123.313H82.6741V119.739Z" fill="#01313D"/>
<path d="M86.0607 119.739H82.4859V123.313H86.0607V119.739Z" fill="#01313D"/>
<path d="M89.4473 119.739H85.8725V123.313H89.4473V119.739Z" fill="#01313D"/>
<path d="M99.607 119.739H96.0323V123.313H99.607V119.739Z" fill="#01313D"/>
<path d="M106.38 119.739H102.806V123.313H106.38V119.739Z" fill="#01313D"/>
<path d="M123.313 119.739H119.739V123.313H123.313V119.739Z" fill="#01313D"/>
<path d="M58.9677 123.125H55.3929V126.7H58.9677V123.125Z" fill="#01313D"/>
<path d="M65.741 123.125H62.1662V126.7H65.741V123.125Z" fill="#01313D"/>
<path d="M72.5142 123.125H68.9395V126.7H72.5142V123.125Z" fill="#01313D"/>
<path d="M82.6741 123.125H79.0993V126.7H82.6741V123.125Z" fill="#01313D"/>
<path d="M86.0607 123.125H82.4859V126.7H86.0607V123.125Z" fill="#01313D"/>
<path d="M89.4473 123.125H85.8725V126.7H89.4473V123.125Z" fill="#01313D"/>
<path d="M92.8339 123.125H89.2591V126.7H92.8339V123.125Z" fill="#01313D"/>
<path d="M96.2205 123.125H92.6458V126.7H96.2205V123.125Z" fill="#01313D"/>
<path d="M99.607 123.125H96.0323V126.7H99.607V123.125Z" fill="#01313D"/>
<path d="M113.154 123.125H109.579V126.7H113.154V123.125Z" fill="#01313D"/>
<path d="M116.54 123.125H112.965V126.7H116.54V123.125Z" fill="#01313D"/>
<path d="M123.313 123.125H119.739V126.7H123.313V123.125Z" fill="#01313D"/>
<path d="M126.7 123.125H123.125V126.7H126.7V123.125Z" fill="#01313D"/>
<path d="M48.4504 31.8559H31.856V48.4503H48.4504V31.8559Z" fill="white"/>
<path d="M48.4504 28.3H31.856H28.3V31.8559V48.4503V52.0063H31.856H48.4504H52.0064V48.4503V31.8559V28.3H48.4504ZM48.4504 48.4503H31.856V31.8559H48.4504V48.4503Z" fill="#01313D"/>
<path d="M122.956 31.8559H106.362V48.4503H122.956V31.8559Z" fill="white"/>
<path d="M122.956 28.3H106.362H102.806V31.8559V48.4503V52.0063H106.362H122.956H126.512V48.4503V31.8559V28.3H122.956ZM122.956 48.4503H106.362V31.8559H122.956V48.4503Z" fill="#01313D"/>
<path d="M48.4504 106.362H31.856V122.956H48.4504V106.362Z" fill="white"/>
<path d="M48.4504 102.805H31.856H28.3V106.361V122.956V126.512H31.856H48.4504H52.0064V122.956V106.361V102.805H48.4504ZM48.4504 122.956H31.856V106.361H48.4504V122.956Z" fill="#01313D"/>
<path d="M45.2331 35.0732H35.0732V45.2331H45.2331V35.0732Z" fill="#01313D"/>
<path d="M119.739 35.0732H109.579V45.2331H119.739V35.0732Z" fill="#01313D"/>
<path d="M45.2331 109.579H35.0732V119.739H45.2331V109.579Z" fill="#01313D"/>
<rect x="8" y="8" width="139" height="139" stroke="#F1FDE1" stroke-width="16"/>
</svg>
