<svg width="128" height="128" viewBox="0 0 128 128" fill="none" xmlns="http://www.w3.org/2000/svg">
<rect width="128" height="128" rx="23" fill="#192149"/>
<path d="M34.2627 85.1675L32.0051 88.0576C30.8431 87.3295 29.7621 86.9618 28.3575 87.1457C23.9966 87.7266 23.4377 93.8231 23.9304 97.4706C24.379 100.817 25.9675 102.037 28.2104 101.736C29.8503 101.515 31.0343 100.537 32.1595 99.4415L34.4319 102.089C33.064 103.67 30.9314 105.236 27.9677 105.634C23.2465 106.266 19.6798 103.699 18.9371 98.1399C18.1796 92.4626 20.0107 84.5792 27.8133 83.5349C30.5048 83.1745 32.6228 83.7776 34.2701 85.1675H34.2627Z" stroke="#598391" stroke-width="1.5" stroke-linecap="round"/>
<path d="M41.9844 99.2798L49.9046 98.2208L49.4045 102.243L37.1234 103.883L37.2484 82.7848L42.0579 82.1377L41.977 99.2724L41.9844 99.2798Z" stroke="#598391" stroke-width="1.5" stroke-linecap="round"/>
<path d="M68.9587 86.6677C69.7015 92.2273 68.1939 100.243 59.9428 101.354C54.8906 102.03 51.6107 99.3018 50.89 93.9261C50.1473 88.3959 51.6916 80.3433 59.9354 79.2402C64.9582 78.571 68.238 81.2626 68.9587 86.6751V86.6677ZM55.8981 93.6172C56.3393 96.9044 57.6704 98.0002 59.7957 97.7207C64.311 97.1177 64.414 90.3815 63.9507 86.9104C63.5241 83.7114 62.2151 82.5789 60.0604 82.8657C55.5451 83.4687 55.4421 90.205 55.8981 93.6098V93.6172Z" stroke="#598391" stroke-width="1.5" stroke-linecap="round"/>
<path d="M88.2113 90.0873C88.2113 94.3746 85.5491 97.9266 80.2616 98.6326C74.9153 99.3459 72.2605 96.5661 72.2752 92.1243L72.3782 78.0856L77.1877 77.4385L77.1068 91.3816C77.07 94.0658 77.9819 95.2204 80.1366 94.9335C82.3796 94.632 83.365 93.1318 83.3724 90.455L83.4974 76.6001L88.3069 75.953L88.2186 90.0799L88.2113 90.0873Z" stroke="#598391" stroke-width="1.5" stroke-linecap="round"/>
<path d="M108.479 81.2626C109.376 87.9841 107.332 94.4997 98.485 95.6763L92.3004 96.5L92.4254 75.4015L98.0438 74.6514C102.978 73.9895 107.626 74.8573 108.479 81.2552V81.2626ZM97.2349 78.3872L97.1466 92.2714L98.7277 92.0582C103.596 91.4037 104.089 85.9544 103.545 81.9244C103.067 78.3651 101.206 77.8577 98.816 78.1739L97.2349 78.3872Z" stroke="#598391" stroke-width="1.5" stroke-linecap="round"/>
<path d="M31.7769 33.8149L18.628 35.5725L18.4 75.3795L28.6294 74.0116L28.6882 61.1863L32.7329 60.6421C45.492 58.936 48.9337 50.0083 47.9924 42.9779C47.0069 35.6166 40.9399 32.5868 31.7695 33.8149H31.7769ZM31.6813 53.2293L28.7544 53.6191L28.8206 41.7057L31.6886 41.3233C35.2332 40.8526 37.1085 42.0293 37.4983 44.9561C37.8954 47.9345 37.1894 52.4939 31.6813 53.2293V53.2293Z" stroke="#598391" stroke-width="1.5" stroke-miterlimit="10" stroke-linecap="round"/>
<path d="M75.2978 36.1314L76.5332 27.8288L52.0813 31.1013L51.8533 70.9009L74.9742 67.8122L75.283 67.7681L76.5332 59.3478L62.1709 61.2672L62.2151 52.9793L73.6872 51.4423L73.6799 44.1178L62.2077 45.6548L62.2739 37.9037L75.2978 36.1314Z" stroke="#598391" stroke-width="1.5" stroke-miterlimit="10" stroke-linecap="round"/>
<path d="M79.5848 27.4243L78.342 35.6534L87.9389 34.3738L87.7256 66.1061L97.955 64.7383L98.1756 33.0059L107.228 31.7925L108.361 23.5708L79.5848 27.4243Z" stroke="#598391" stroke-width="1.5" stroke-miterlimit="10" stroke-linecap="round"/>
<path d="M35.6602 83.1967L33.4026 86.0868C32.2407 85.3587 31.1596 84.991 29.755 85.1749C25.3941 85.7558 24.8352 91.8523 25.3279 95.4998C25.7765 98.8459 27.365 100.067 29.6079 99.7651C31.2479 99.5445 32.4319 98.5664 33.557 97.4707L35.8294 100.118C34.4615 101.699 32.3289 103.266 29.3653 103.663C24.644 104.295 21.0773 101.729 20.3346 96.1691C19.5771 90.4918 21.4083 82.6084 29.2108 81.5641C31.9024 81.2038 34.0203 81.8068 35.6676 83.1967H35.6602Z" fill="white"/>
<path d="M43.389 97.309L51.3093 96.25L50.8092 100.273L38.5281 101.913L38.6531 80.814L43.4626 80.1669L43.3817 97.3016L43.389 97.309Z" fill="white"/>
<path d="M70.3562 84.6969C71.099 90.2565 69.5914 98.2723 61.3403 99.3828C56.2881 100.059 53.0083 97.331 52.2876 91.9553C51.5448 86.4251 53.0891 78.3725 61.3329 77.2694C66.3557 76.6002 69.6355 79.2918 70.3562 84.7043V84.6969ZM57.2956 91.6464C57.7368 94.9336 59.0679 96.0294 61.1932 95.7499C65.7085 95.1469 65.8115 88.4107 65.3482 84.9396C64.9217 81.7406 63.6127 80.6081 61.4579 80.8949C56.9426 81.498 56.8397 88.2342 57.2956 91.6391V91.6464Z" fill="white"/>
<path d="M89.6088 88.1165C89.6088 92.4038 86.9467 95.9558 81.6592 96.6618C76.3128 97.3751 73.6581 94.5953 73.6728 90.1535L73.7757 76.1148L78.5852 75.4677L78.5043 89.4108C78.4675 92.095 79.3794 93.2495 81.5341 92.9627C83.7771 92.6612 84.7625 91.161 84.7699 88.4842L84.8949 74.6293L89.7044 73.9822L89.6161 88.1091L89.6088 88.1165Z" fill="white"/>
<path d="M109.877 79.2918C110.774 86.0133 108.729 92.5289 99.8826 93.7055L93.6979 94.5292L93.8229 73.4307L99.4413 72.6805C104.376 72.0187 109.024 72.8865 109.877 79.2844V79.2918ZM98.6324 76.4164L98.5441 90.3006L100.125 90.0874C104.994 89.4329 105.486 83.9836 104.942 79.9536C104.464 76.3943 102.604 75.8869 100.213 76.2031L98.6324 76.4164Z" fill="white"/>
<path d="M33.1817 31.8441L20.0255 33.6017L19.7975 73.4087L30.0269 72.0408L30.0857 59.2155L34.1304 58.6713C46.8895 56.9652 50.3312 48.0375 49.3899 41.0071C48.4044 33.6458 42.3374 30.616 33.167 31.8441H33.1817ZM33.0861 51.2585L30.1593 51.6483L30.2255 39.7349L33.0935 39.3525C36.6381 38.8818 38.5134 40.0585 38.9031 42.9853C39.3002 45.9637 38.5943 50.5231 33.0861 51.2585Z" fill="white"/>
<path d="M76.7027 34.1606L77.9308 25.8579L53.4789 29.1305L53.2509 68.9301L76.3718 65.8414L76.6806 65.7973L77.9308 57.377L63.5685 59.2964L63.6126 51.0085L75.0848 49.4715L75.0775 42.147L63.6053 43.6839L63.6788 35.9329L76.7027 34.1606Z" fill="white"/>
<path d="M80.9822 25.4461L79.7467 33.6825L89.3363 32.4029L89.123 64.1353L99.3524 62.7674L99.573 31.0351L108.626 29.8217L109.758 21.6L80.9822 25.4461Z" fill="white"/>
</svg>
